<svg width="25" height="25" viewBox="0 0 25 25" fill="none" xmlns="http://www.w3.org/2000/svg">
<g clip-path="url(#clip0_7_81)">
<path d="M13.2813 8.59375C13.2813 8.38655 13.199 8.18784 13.0525 8.04132C12.906 7.89481 12.7073 7.8125 12.5001 7.8125C12.2929 7.8125 12.0941 7.89481 11.9476 8.04132C11.8011 8.18784 11.7188 8.38655 11.7188 8.59375V13.8469L9.48599 17.5656C9.37929 17.7434 9.34757 17.9563 9.39782 18.1575C9.44808 18.3586 9.57618 18.5316 9.75396 18.6383C9.93174 18.745 10.1446 18.7767 10.3458 18.7265C10.547 18.6762 10.7199 18.5481 10.8266 18.3703L13.1704 14.4641C13.243 14.3427 13.2814 14.2039 13.2813 14.0625V8.59375Z" fill="black"/>
<path d="M10.1562 0C9.94905 0 9.75034 0.08231 9.60382 0.228823C9.45731 0.375336 9.375 0.57405 9.375 0.78125C9.375 0.98845 9.45731 1.18716 9.60382 1.33368C9.75034 1.48019 9.94905 1.5625 10.1562 1.5625H10.9375V3.23438C8.8098 3.54177 6.81985 4.46928 5.21622 5.90105C3.61258 7.33281 2.46637 9.20536 1.92077 11.2848C1.37516 13.3642 1.45435 15.5582 2.14845 17.5929C2.84254 19.6275 4.12076 21.4126 5.82344 22.725L4.88281 23.6656C4.73611 23.8121 4.65362 24.0109 4.65347 24.2182C4.65333 24.4255 4.73554 24.6244 4.88203 24.7711C5.02852 24.9178 5.22729 25.0003 5.4346 25.0004C5.64192 25.0006 5.8408 24.9184 5.9875 24.7719L7.15313 23.6062C8.78596 24.5228 10.6275 25.0028 12.5 25C14.3725 25.0028 16.214 24.5228 17.8469 23.6062L19.0125 24.7719C19.1592 24.9184 19.3581 25.0006 19.5654 25.0004C19.7727 25.0003 19.9715 24.9178 20.118 24.7711C20.2645 24.6244 20.3467 24.4255 20.3465 24.2182C20.3464 24.0109 20.2639 23.8121 20.1172 23.6656L19.1781 22.725C20.8808 21.4125 22.159 19.6273 22.8531 17.5925C23.5471 15.5578 23.6261 13.3636 23.0803 11.2842C22.5346 9.20471 21.3881 7.33219 19.7843 5.90052C18.1805 4.46886 16.1903 3.54152 14.0625 3.23438V1.5625H14.8438C15.051 1.5625 15.2497 1.48019 15.3962 1.33368C15.5427 1.18716 15.625 0.98845 15.625 0.78125C15.625 0.57405 15.5427 0.375336 15.3962 0.228823C15.2497 0.08231 15.051 0 14.8438 0L10.1562 0ZM11.7781 4.71562C12.2587 4.67851 12.7413 4.67851 13.2219 4.71562C15.6385 4.90226 17.889 6.01764 19.5011 7.82774C21.1131 9.63783 21.9614 12.0019 21.868 14.424C21.7747 16.8461 20.7468 19.1378 19.0002 20.8184C17.2535 22.499 14.9239 23.4378 12.5 23.4378C10.0761 23.4378 7.74647 22.499 5.99983 20.8184C4.2532 19.1378 3.22535 16.8461 3.13196 14.424C3.03857 12.0019 3.8869 9.63783 5.49895 7.82774C7.111 6.01764 9.36146 4.90226 11.7781 4.71562ZM3.95761e-09 5.46875C3.95761e-09 6.64531 0.520312 7.70156 1.34375 8.41719C2.55005 6.04243 4.47993 4.11255 6.85469 2.90625C6.33262 2.30552 5.63951 1.87859 4.86814 1.6826C4.09676 1.48662 3.28392 1.53094 2.53842 1.80964C1.79293 2.08833 1.15035 2.58809 0.696693 3.24202C0.243041 3.89596 -3.5813e-05 4.67286 3.95761e-09 5.46875ZM21.0938 1.5625C19.9172 1.5625 18.8609 2.08281 18.1453 2.90625C20.5201 4.11255 22.45 6.04243 23.6562 8.41719C24.257 7.89512 24.6839 7.20201 24.8799 6.43063C25.0759 5.65926 25.0316 4.84642 24.7529 4.10092C24.4742 3.35543 23.9744 2.71285 23.3205 2.25919C22.6665 1.80554 21.8896 1.56246 21.0938 1.5625Z" fill="black"/>
</g>
<defs>
<clipPath id="clip0_7_81">
<rect width="25" height="25" fill="white"/>
</clipPath>
</defs>
</svg>
