<svg width="215" height="230" viewBox="0 0 215 230" fill="none" xmlns="http://www.w3.org/2000/svg">
<path d="M215 175.904H-15V176.019H215V175.904Z" fill="#EBEBEB"/>
<path d="M60.7114 182.997H45.4762V183.112H60.7114V182.997Z" fill="#EBEBEB"/>
<path d="M104.066 181.751H100.069V181.866H104.066V181.751Z" fill="#EBEBEB"/>
<path d="M17.959 179.809H9.1316V179.924H17.959V179.809Z" fill="#EBEBEB"/>
<path d="M176.259 179.037H164.262V179.152H176.259V179.037Z" fill="#EBEBEB"/>
<path d="M160.163 179.037H149.381V179.152H160.163V179.037Z" fill="#EBEBEB"/>
<path d="M191.959 184.557H148.866V184.672H191.959V184.557Z" fill="#EBEBEB"/>
<path d="M94.02 155.388H5.1986C4.50278 155.387 3.83587 155.11 3.34429 154.617C2.8527 154.125 2.5766 153.457 2.5766 152.761V27.9036C2.58266 27.2118 2.86143 26.5503 3.35236 26.0628C3.8433 25.5753 4.50675 25.3012 5.1986 25.3H94.02C94.7166 25.3 95.3847 25.5767 95.8773 26.0693C96.3699 26.5619 96.6466 27.23 96.6466 27.9266V152.761C96.6466 153.458 96.3699 154.126 95.8773 154.619C95.3847 155.111 94.7166 155.388 94.02 155.388ZM5.1986 25.392C4.53328 25.3932 3.89563 25.6584 3.4256 26.1292C2.95558 26.6001 2.6916 27.2383 2.6916 27.9036V152.761C2.6916 153.427 2.95558 154.065 3.4256 154.536C3.89563 155.007 4.53328 155.272 5.1986 155.273H94.02C94.6857 155.272 95.3239 155.007 95.7946 154.536C96.2654 154.065 96.5304 153.427 96.5316 152.761V27.9036C96.5304 27.2378 96.2654 26.5997 95.7946 26.129C95.3239 25.6582 94.6857 25.3932 94.02 25.392H5.1986Z" fill="#EBEBEB"/>
<path d="M193.523 155.388H104.697C104 155.387 103.333 155.11 102.841 154.617C102.348 154.125 102.071 153.458 102.07 152.761V27.9036C102.077 27.2113 102.357 26.5498 102.849 26.0625C103.34 25.5751 104.004 25.3012 104.697 25.3H193.523C194.214 25.3024 194.876 25.577 195.366 26.0644C195.856 26.5517 196.134 27.2126 196.14 27.9036V152.761C196.14 153.456 195.865 154.123 195.374 154.615C194.883 155.108 194.218 155.386 193.523 155.388ZM104.697 25.392C104.031 25.3932 103.393 25.6582 102.922 26.129C102.451 26.5997 102.186 27.2378 102.185 27.9036V152.761C102.186 153.427 102.451 154.065 102.922 154.536C103.393 155.007 104.031 155.272 104.697 155.273H193.523C194.188 155.272 194.826 155.007 195.297 154.536C195.768 154.065 196.033 153.427 196.034 152.761V27.9036C196.033 27.2378 195.768 26.5997 195.297 26.129C194.826 25.6582 194.188 25.3932 193.523 25.392H104.697Z" fill="#EBEBEB"/>
<path d="M131.556 174.533H142.389V127.135H131.556V174.533Z" fill="#F0F0F0"/>
<path d="M92.617 175.904H140.314V174.533H92.617V175.904Z" fill="#F0F0F0"/>
<path d="M127.296 129.794H94.7928V149.776H127.296V129.794Z" fill="#F0F0F0"/>
<path d="M127.296 151.892H94.7928V171.874H127.296V151.892Z" fill="#F0F0F0"/>
<path d="M119.472 133.276H102.622C102.095 133.276 101.573 133.173 101.087 132.971C100.6 132.769 100.158 132.473 99.7859 132.1C99.414 131.727 99.1195 131.284 98.9194 130.796C98.7193 130.309 98.6176 129.787 98.62 129.26H123.46C123.462 129.786 123.361 130.307 123.162 130.793C122.963 131.28 122.669 131.722 122.299 132.095C121.929 132.468 121.488 132.765 121.003 132.967C120.518 133.17 119.998 133.275 119.472 133.276Z" fill="#F5F5F5"/>
<path d="M119.472 155.374H102.622C101.562 155.374 100.545 154.953 99.7954 154.203C99.0458 153.454 98.6246 152.437 98.6246 151.377H123.465C123.465 152.436 123.044 153.452 122.295 154.202C121.547 154.951 120.531 155.373 119.472 155.374Z" fill="#F5F5F5"/>
<path d="M175.799 174.533H186.632V127.135H175.799V174.533Z" fill="#F0F0F0"/>
<path d="M136.855 175.904H184.553V174.533H136.855V175.904Z" fill="#F0F0F0"/>
<path d="M163.71 133.276H146.86C145.8 133.276 144.783 132.855 144.034 132.105C143.284 131.355 142.863 130.339 142.863 129.278H167.703C167.703 130.338 167.282 131.354 166.534 132.103C165.785 132.853 164.769 133.275 163.71 133.276Z" fill="#F5F5F5"/>
<path d="M116.854 106.265L186.636 106.265V103.937L116.854 103.937V106.265Z" fill="#E6E6E6"/>
<path d="M111.086 106.265L182.018 106.265V103.937L111.086 103.937V106.265Z" fill="#F0F0F0"/>
<path d="M181.195 80.6656C181.256 80.6609 181.313 80.6322 181.354 80.5857C181.394 80.5392 181.415 80.4787 181.411 80.4172V44.4498C181.411 44.3924 181.388 44.3374 181.347 44.2969C181.307 44.2564 181.252 44.2336 181.195 44.2336C181.137 44.2336 181.082 44.2564 181.042 44.2969C181.001 44.3374 180.978 44.3924 180.978 44.4498V80.4172C180.975 80.4787 180.995 80.5392 181.036 80.5857C181.076 80.6322 181.133 80.6609 181.195 80.6656Z" fill="#F0F0F0"/>
<path d="M28.4838 175.904H26.4092V170.002H30.6596L28.4838 175.904Z" fill="#F0F0F0"/>
<path d="M56.0516 145.043H59.8098C60.617 145.045 61.4162 144.883 62.1587 144.567C62.9013 144.25 63.5718 143.786 64.1292 143.203H51.7092C52.269 143.79 52.9431 144.256 53.6899 144.572C54.4368 144.889 55.2405 145.049 56.0516 145.043Z" fill="#F0F0F0"/>
<path d="M35.4528 145.043H39.2156C40.0227 145.045 40.8218 144.883 41.5644 144.566C42.3069 144.25 42.9774 143.786 43.535 143.203H31.115C31.6746 143.789 32.348 144.254 33.0939 144.57C33.8399 144.887 34.6426 145.048 35.4528 145.043Z" fill="#F0F0F0"/>
<path d="M66.972 175.904H69.0466V170.002H64.7962L66.972 175.904Z" fill="#F0F0F0"/>
<path d="M55.725 136.841C55.7241 137.31 55.8622 137.768 56.122 138.158C56.3818 138.548 56.7514 138.853 57.1842 139.033C57.617 139.213 58.0935 139.26 58.5533 139.169C59.0132 139.079 59.4357 138.853 59.7675 138.522C60.0993 138.191 60.3253 137.769 60.4171 137.309C60.5089 136.85 60.4623 136.373 60.2831 135.94C60.1039 135.507 59.8003 135.136 59.4106 134.876C59.0209 134.615 58.5627 134.476 58.094 134.476C57.4669 134.478 56.8657 134.727 56.4218 135.17C55.9779 135.613 55.7274 136.214 55.725 136.841Z" fill="#E0E0E0"/>
<path d="M59.1658 137.669C60.4716 137.669 61.5302 136.61 61.5302 135.304C61.5302 133.999 60.4716 132.94 59.1658 132.94C57.86 132.94 56.8014 133.999 56.8014 135.304C56.8014 136.61 57.86 137.669 59.1658 137.669Z" fill="#E0E0E0"/>
<path d="M43.88 137.223C43.88 137.69 44.0187 138.147 44.2785 138.536C44.5383 138.925 44.9075 139.228 45.3396 139.407C45.7716 139.586 46.247 139.633 46.7057 139.542C47.1643 139.45 47.5856 139.225 47.9163 138.894C48.247 138.564 48.4721 138.143 48.5634 137.684C48.6546 137.225 48.6078 136.75 48.4288 136.318C48.2499 135.886 47.9468 135.516 47.558 135.257C47.1692 134.997 46.712 134.858 46.2444 134.858C45.6173 134.858 45.0159 135.107 44.5725 135.551C44.1291 135.994 43.88 136.596 43.88 137.223Z" fill="#E0E0E0"/>
<path d="M62.3306 138.593C63.9337 138.593 65.2332 137.294 65.2332 135.691C65.2332 134.088 63.9337 132.788 62.3306 132.788C60.7275 132.788 59.428 134.088 59.428 135.691C59.428 137.294 60.7275 138.593 62.3306 138.593Z" fill="#E0E0E0"/>
<path d="M53.678 133.018C53.6771 133.592 53.8465 134.154 54.1649 134.632C54.4833 135.11 54.9363 135.483 55.4666 135.703C55.9969 135.924 56.5807 135.982 57.144 135.87C57.7074 135.759 58.225 135.483 58.6314 135.077C59.0378 134.671 59.3147 134.154 59.4271 133.591C59.5394 133.028 59.4822 132.444 59.2627 131.913C59.0431 131.382 58.6711 130.929 58.1937 130.61C57.7162 130.291 57.1549 130.12 56.5806 130.12C55.8119 130.121 55.0751 130.427 54.5311 130.97C53.9872 131.513 53.6804 132.25 53.678 133.018Z" fill="#E0E0E0"/>
<path d="M49.078 133.759C49.0771 134.333 49.2465 134.895 49.5649 135.373C49.8833 135.851 50.3363 136.223 50.8666 136.444C51.3969 136.664 51.9807 136.722 52.544 136.611C53.1074 136.499 53.625 136.223 54.0314 135.817C54.4378 135.412 54.7147 134.895 54.8271 134.331C54.9394 133.768 54.8822 133.184 54.6627 132.654C54.4431 132.123 54.0711 131.669 53.5937 131.35C53.1162 131.031 52.5549 130.861 51.9806 130.861C51.2116 130.861 50.474 131.166 49.9298 131.709C49.3856 132.253 49.0792 132.99 49.078 133.759Z" fill="#E0E0E0"/>
<path d="M51.0238 136.1C51.0238 136.646 51.1857 137.18 51.4889 137.634C51.7922 138.087 52.2233 138.441 52.7276 138.65C53.2319 138.859 53.7869 138.914 54.3222 138.807C54.8576 138.701 55.3494 138.438 55.7354 138.052C56.1214 137.666 56.3843 137.174 56.4908 136.639C56.5973 136.103 56.5426 135.548 56.3337 135.044C56.1248 134.54 55.771 134.109 55.3172 133.805C54.8633 133.502 54.3297 133.34 53.7838 133.34C53.0518 133.34 52.3498 133.631 51.8322 134.149C51.3146 134.666 51.0238 135.368 51.0238 136.1Z" fill="#E0E0E0"/>
<path d="M46.2214 135.921C46.2214 136.51 46.3962 137.087 46.7238 137.577C47.0513 138.067 47.5168 138.449 48.0615 138.675C48.6062 138.9 49.2055 138.959 49.7837 138.844C50.3619 138.729 50.8931 138.445 51.31 138.029C51.7268 137.612 52.0107 137.081 52.1257 136.502C52.2407 135.924 52.1817 135.325 51.9561 134.78C51.7305 134.235 51.3484 133.77 50.8582 133.442C50.3681 133.115 49.7918 132.94 49.2022 132.94C48.4117 132.94 47.6535 133.254 47.0945 133.813C46.5355 134.372 46.2214 135.13 46.2214 135.921Z" fill="#E0E0E0"/>
<path d="M66.9582 136.841C66.9582 136.841 66.6362 141.441 54.184 141.441C41.7318 141.441 41.4052 136.841 41.4052 136.841H66.9582Z" fill="#F0F0F0"/>
<path d="M100 196.678C149.258 196.678 189.189 194.346 189.189 191.47C189.189 188.595 149.258 186.263 100 186.263C50.7421 186.263 10.8106 188.595 10.8106 191.47C10.8106 194.346 50.7421 196.678 100 196.678Z" fill="#D9D9D9"/>
<path d="M126.574 55.154C126.2 53.9179 125.704 52.7222 125.093 51.5844L126.013 48.5714L120.065 42.619L117.052 43.539C115.914 42.928 114.719 42.4318 113.483 42.0578L112.001 39.2978H103.583L102.107 42.0578C100.87 42.431 99.6746 42.9272 98.5372 43.539L95.5242 42.619L89.5718 48.5714L90.4918 51.5844C89.8843 52.7232 89.3897 53.9188 89.0152 55.154L86.2322 56.6352V65.0532L89.0152 66.5298C89.3888 67.7653 89.8834 68.961 90.4918 70.0994L89.5718 73.1124L95.5242 79.0648L98.5372 78.1448C99.6756 78.7532 100.871 79.2478 102.107 79.6214L103.583 82.3814H112.001L113.483 79.6214C114.718 79.2468 115.913 78.7523 117.052 78.1448L120.065 79.0648L126.018 73.1124L125.098 70.0994C125.709 68.962 126.206 67.7662 126.579 66.5298L129.362 65.0532V56.6352L126.574 55.154ZM107.792 72.7996C105.427 72.7996 103.115 72.0981 101.148 70.784C99.181 69.4698 97.648 67.6019 96.7428 65.4165C95.8376 63.2311 95.6007 60.8263 96.0622 58.5063C96.5237 56.1863 97.6628 54.0552 99.3354 52.3826C101.008 50.71 103.139 49.5709 105.459 49.1094C107.779 48.6479 110.184 48.8848 112.369 49.79C114.555 50.6952 116.423 52.2282 117.737 54.195C119.051 56.1618 119.752 58.4741 119.752 60.8396C119.752 64.0116 118.492 67.0536 116.249 69.2966C114.006 71.5395 110.964 72.7996 107.792 72.7996Z" fill="#8FB78F"/>
<path opacity="0.2" d="M126.574 55.154C126.2 53.9179 125.704 52.7222 125.093 51.5844L126.013 48.5714L120.065 42.619L117.052 43.539C115.914 42.928 114.719 42.4318 113.483 42.0578L112.001 39.2978H103.583L102.107 42.0578C100.87 42.431 99.6746 42.9272 98.5372 43.539L95.5242 42.619L89.5718 48.5714L90.4918 51.5844C89.8843 52.7232 89.3897 53.9188 89.0152 55.154L86.2322 56.6352V65.0532L89.0152 66.5298C89.3888 67.7653 89.8834 68.961 90.4918 70.0994L89.5718 73.1124L95.5242 79.0648L98.5372 78.1448C99.6756 78.7532 100.871 79.2478 102.107 79.6214L103.583 82.3814H112.001L113.483 79.6214C114.718 79.2468 115.913 78.7523 117.052 78.1448L120.065 79.0648L126.018 73.1124L125.098 70.0994C125.709 68.962 126.206 67.7662 126.579 66.5298L129.362 65.0532V56.6352L126.574 55.154ZM107.792 72.7996C105.427 72.7996 103.115 72.0981 101.148 70.784C99.181 69.4698 97.648 67.6019 96.7428 65.4165C95.8376 63.2311 95.6007 60.8263 96.0622 58.5063C96.5237 56.1863 97.6628 54.0552 99.3354 52.3826C101.008 50.71 103.139 49.5709 105.459 49.1094C107.779 48.6479 110.184 48.8848 112.369 49.79C114.555 50.6952 116.423 52.2282 117.737 54.195C119.051 56.1618 119.752 58.4741 119.752 60.8396C119.752 64.0116 118.492 67.0536 116.249 69.2966C114.006 71.5395 110.964 72.7996 107.792 72.7996Z" fill="white"/>
<path d="M107.792 56.879C107.008 56.879 106.242 57.1115 105.589 57.5472C104.937 57.9829 104.429 58.6022 104.129 59.3267C103.829 60.0513 103.75 60.8486 103.903 61.6177C104.056 62.3869 104.434 63.0934 104.989 63.648C105.543 64.2025 106.25 64.5802 107.019 64.7332C107.788 64.8862 108.585 64.8077 109.31 64.5075C110.034 64.2074 110.654 63.6992 111.089 63.0471C111.525 62.395 111.758 61.6284 111.758 60.8442C111.758 59.7925 111.34 58.784 110.596 58.0403C109.853 57.2967 108.844 56.879 107.792 56.879Z" fill="#8FB78F"/>
<path d="M116.56 108.634C116.438 108.634 116.321 108.585 116.235 108.499C116.148 108.413 116.1 108.296 116.1 108.174V107.254C116.1 107.132 116.148 107.015 116.235 106.928C116.321 106.842 116.438 106.794 116.56 106.794C116.682 106.794 116.799 106.842 116.885 106.928C116.972 107.015 117.02 107.132 117.02 107.254V108.174C117.02 108.296 116.972 108.413 116.885 108.499C116.799 108.585 116.682 108.634 116.56 108.634Z" fill="#8FB78F"/>
<path d="M109.398 96.7472C108.975 96.4757 108.645 96.0828 108.45 95.6202C108.402 95.5079 108.311 95.4194 108.198 95.3741C108.084 95.3288 107.958 95.3305 107.845 95.3787C107.733 95.4269 107.645 95.5177 107.599 95.6311C107.554 95.7445 107.556 95.8713 107.604 95.9836C107.874 96.6118 108.324 97.1463 108.896 97.52C108.97 97.5678 109.057 97.5933 109.145 97.5936C109.244 97.5943 109.342 97.5627 109.422 97.5035C109.502 97.4443 109.56 97.3607 109.589 97.2653C109.617 97.1699 109.614 97.0678 109.58 96.9744C109.545 96.8809 109.481 96.8012 109.398 96.7472Z" fill="#8FB78F"/>
<path d="M107.792 91.0018C107.914 91.0018 108.031 90.9533 108.118 90.8671C108.204 90.7808 108.252 90.6638 108.252 90.5418V88.78C108.252 88.658 108.204 88.541 108.118 88.4547C108.031 88.3685 107.914 88.32 107.792 88.32C107.67 88.32 107.553 88.3685 107.467 88.4547C107.381 88.541 107.332 88.658 107.332 88.78V90.5418C107.332 90.6638 107.381 90.7808 107.467 90.8671C107.553 90.9533 107.67 91.0018 107.792 91.0018Z" fill="#8FB78F"/>
<path d="M112.581 97.152H110.815C110.693 97.152 110.576 97.2004 110.489 97.2867C110.403 97.373 110.355 97.49 110.355 97.612C110.355 97.734 110.403 97.851 110.489 97.9372C110.576 98.0235 110.693 98.072 110.815 98.072H112.581C112.703 98.072 112.82 98.0235 112.906 97.9372C112.993 97.851 113.041 97.734 113.041 97.612C113.041 97.49 112.993 97.373 112.906 97.2867C112.82 97.2004 112.703 97.152 112.581 97.152Z" fill="#8FB78F"/>
<path d="M108.252 94.07V92.3082C108.252 92.1862 108.204 92.0692 108.118 91.9829C108.031 91.8967 107.914 91.8482 107.792 91.8482C107.67 91.8482 107.553 91.8967 107.467 91.9829C107.381 92.0692 107.332 92.1862 107.332 92.3082V94.07C107.332 94.192 107.381 94.309 107.467 94.3953C107.553 94.4815 107.67 94.53 107.792 94.53C107.914 94.53 108.031 94.4815 108.118 94.3953C108.204 94.309 108.252 94.192 108.252 94.07Z" fill="#8FB78F"/>
<path d="M116.992 100.142C116.976 100.021 116.913 99.9119 116.817 99.8377C116.72 99.7636 116.598 99.7307 116.477 99.7464C116.417 99.7564 116.36 99.7782 116.308 99.8105C116.257 99.8428 116.212 99.8849 116.177 99.9346C116.142 99.9842 116.117 100.04 116.104 100.1C116.091 100.159 116.089 100.22 116.1 100.28C116.115 100.387 116.122 100.494 116.123 100.602V101.982C116.123 102.104 116.171 102.221 116.258 102.307C116.344 102.394 116.461 102.442 116.583 102.442C116.705 102.442 116.822 102.394 116.908 102.307C116.995 102.221 117.043 102.104 117.043 101.982V100.602C117.036 100.448 117.019 100.294 116.992 100.142Z" fill="#8FB78F"/>
<path d="M116.56 103.265C116.438 103.265 116.321 103.314 116.235 103.4C116.148 103.486 116.1 103.603 116.1 103.725V105.492C116.1 105.614 116.148 105.731 116.235 105.817C116.321 105.903 116.438 105.952 116.56 105.952C116.682 105.952 116.799 105.903 116.885 105.817C116.972 105.731 117.02 105.614 117.02 105.492V103.725C117.02 103.603 116.972 103.486 116.885 103.4C116.799 103.314 116.682 103.265 116.56 103.265Z" fill="#8FB78F"/>
<path d="M116.16 98.3158C115.709 97.8015 115.115 97.4344 114.453 97.2624C114.395 97.2473 114.334 97.2439 114.274 97.2523C114.214 97.2608 114.156 97.281 114.104 97.3118C114.052 97.3425 114.006 97.3832 113.97 97.4316C113.934 97.4799 113.907 97.535 113.892 97.5936C113.877 97.6522 113.873 97.7132 113.882 97.7731C113.89 97.833 113.911 97.8907 113.941 97.9428C113.972 97.9949 114.013 98.0404 114.061 98.0768C114.11 98.1132 114.165 98.1397 114.223 98.1548C114.707 98.2795 115.141 98.5473 115.47 98.923C115.513 98.9721 115.566 99.0114 115.625 99.0383C115.685 99.0653 115.749 99.0793 115.815 99.0794C115.903 99.0793 115.99 99.0537 116.064 99.0057C116.138 98.9577 116.197 98.8893 116.233 98.8088C116.27 98.7282 116.282 98.6389 116.269 98.5514C116.256 98.464 116.218 98.3822 116.16 98.3158Z" fill="#8FB78F"/>
<path d="M107.792 87.4552C107.67 87.4552 107.553 87.4067 107.467 87.3204C107.381 87.2342 107.332 87.1172 107.332 86.9952V86.0752C107.332 85.9532 107.381 85.8362 107.467 85.7499C107.553 85.6636 107.67 85.6152 107.792 85.6152C107.914 85.6152 108.031 85.6636 108.118 85.7499C108.204 85.8362 108.252 85.9532 108.252 86.0752V86.9952C108.252 87.1172 108.204 87.2342 108.118 87.3204C108.031 87.4067 107.914 87.4552 107.792 87.4552Z" fill="#8FB78F"/>
<path d="M138.35 131.795H31.8418V133.501H138.35V131.795Z" fill="#8FB78F"/>
<path d="M138.35 133.501H161.461V131.795H138.35V133.501Z" fill="#8FB78F"/>
<path opacity="0.2" d="M138.35 133.501H161.461V131.795H138.35V133.501Z" fill="black"/>
<path d="M153.742 135.327H39.5606L35.7426 133.501H157.56L153.742 135.327Z" fill="#8FB78F"/>
<path opacity="0.6" d="M153.742 135.327H39.5606L35.7426 133.501H157.56L153.742 135.327Z" fill="white"/>
<path d="M43.0106 135.327V189.764H44.4734L46.3134 135.327H43.0106Z" fill="#8FB78F"/>
<path d="M60.279 135.327V189.764H61.7418L63.5818 135.327H60.279Z" fill="#8FB78F"/>
<path d="M153.742 135.327V189.764H152.284L150.439 135.327H153.742Z" fill="#8FB78F"/>
<path d="M136.478 135.327V189.764H135.015L133.175 135.327H136.478Z" fill="#8FB78F"/>
<path d="M101.72 111.131L96.9134 130.714L96.78 131.795H129.937L130.075 130.714L134.877 111.131H101.72Z" fill="#8FB78F"/>
<path opacity="0.3" d="M101.72 111.131L96.9134 130.714L96.78 131.795H129.937L130.075 130.714L134.877 111.131H101.72Z" fill="black"/>
<path d="M133.861 111.131H100.699L95.8968 130.714H129.054L133.861 111.131Z" fill="#8FB78F"/>
<path d="M128.35 129.817L132.72 112.028H101.403L97.0376 129.817H128.35Z" fill="white"/>
<path d="M120.415 130.714L120.277 131.795H83.7666L83.9 130.714H120.415Z" fill="#8FB78F"/>
<path opacity="0.6" d="M120.415 130.714L120.277 131.795H83.7666L83.9 130.714H120.415Z" fill="white"/>
<path d="M51.4424 128.234C51.4193 127.534 51.1449 126.865 50.6695 126.349C50.194 125.834 49.5491 125.507 48.8526 125.428V124.899C48.852 124.869 48.8453 124.838 48.8329 124.81C48.8205 124.782 48.8027 124.757 48.7804 124.736C48.7581 124.715 48.7319 124.699 48.7032 124.688C48.6745 124.677 48.644 124.673 48.6134 124.674H43.6454C43.6146 124.673 43.5838 124.677 43.5549 124.688C43.526 124.699 43.4994 124.715 43.4768 124.736C43.4541 124.757 43.4358 124.782 43.4229 124.81C43.41 124.838 43.4028 124.868 43.4016 124.899V131.799H48.8526V131.045C49.5503 130.967 50.1963 130.639 50.672 130.123C51.1478 129.607 51.4213 128.936 51.4424 128.234ZM48.8526 130.152V126.321C49.3123 126.388 49.7323 126.619 50.036 126.971C50.3397 127.323 50.5068 127.772 50.5068 128.237C50.5068 128.701 50.3397 129.15 50.036 129.502C49.7323 129.854 49.3123 130.085 48.8526 130.152Z" fill="#8FB78F"/>
<path d="M144.418 131.795H149.036L147.67 121.679H144.418V131.795Z" fill="#263238"/>
<path d="M137.646 131.795H146.396L148.019 119.954H139.275L137.646 131.795Z" fill="#8FB78F"/>
<path opacity="0.3" d="M137.646 131.795H146.396L148.019 119.954H139.275L137.646 131.795Z" fill="black"/>
<path d="M136.478 131.795H145.581L147.21 119.954H138.106L136.478 131.795Z" fill="#8FB78F"/>
<path opacity="0.4" d="M144.776 130.861L146.147 120.888H138.911L137.541 130.861H144.776Z" fill="white"/>
<path d="M75.8684 114.315L75.4912 114.719L75.0864 115.179C74.815 115.492 74.5436 115.81 74.286 116.136C73.7708 116.789 73.274 117.456 72.8094 118.142C71.885 119.467 71.1134 120.893 70.5094 122.392C70.228 123.105 70.0095 123.84 69.8562 124.591C69.7826 125.014 69.7366 125.198 69.7136 125.378C69.6881 125.521 69.6881 125.667 69.7136 125.81C69.7907 126.035 69.9118 126.242 70.0697 126.42C70.2277 126.597 70.4193 126.742 70.6336 126.845C70.9441 127.036 71.2704 127.201 71.6088 127.337C71.7867 127.411 71.9707 127.48 72.1608 127.544C72.3356 127.609 72.5564 127.673 72.6944 127.728V130.263C72.3724 130.309 72.1378 130.346 71.8664 130.364C71.595 130.382 71.3328 130.387 71.0614 130.364C70.5034 130.353 69.9483 130.282 69.4054 130.152C68.7937 130.009 68.2075 129.773 67.6666 129.453C67.0307 129.081 66.4842 128.574 66.0658 127.967C65.6351 127.322 65.3494 126.59 65.2286 125.824C65.1978 125.644 65.1778 125.463 65.1688 125.281C65.1597 125.106 65.1597 124.931 65.1688 124.757V124.499C65.1636 124.43 65.1636 124.361 65.1688 124.292L65.2056 123.887C65.3233 122.836 65.5452 121.799 65.868 120.791C66.491 118.856 67.368 117.012 68.4762 115.308C69.0086 114.471 69.5876 113.665 70.2104 112.893C70.5186 112.507 70.836 112.13 71.1672 111.757C71.3282 111.568 71.4984 111.384 71.6732 111.2C71.848 111.016 72.009 110.855 72.2482 110.625L75.8684 114.315Z" fill="#B55B52"/>
<path d="M71.779 127.673L73.9226 126.1L75.1416 130.507C75.1416 130.507 73.2418 131.21 71.7928 130.263L71.779 127.673Z" fill="#B55B52"/>
<path d="M76.8988 125.042L77.736 128.731L75.1416 130.507L73.9226 126.1L76.8988 125.042Z" fill="#B55B52"/>
<path d="M90.455 97.405C90.3584 97.6764 90.4274 97.9478 90.6068 98.0076C90.7862 98.0674 91.007 97.9018 91.099 97.6304C91.191 97.359 91.1266 97.083 90.9518 97.0232C90.777 96.9634 90.5516 97.129 90.455 97.405Z" fill="#263238"/>
<path d="M90.4044 97.9386C90.4403 98.8859 90.6059 99.8239 90.8966 100.726C90.6649 100.793 90.4216 100.808 90.1834 100.772C89.9452 100.735 89.7177 100.647 89.5166 100.515L90.4044 97.9386Z" fill="#A02724"/>
<path d="M90.0134 95.5557C90.0477 95.5673 90.0849 95.5673 90.1192 95.5557C90.321 95.4884 90.5359 95.47 90.7463 95.502C90.9566 95.534 91.1563 95.6155 91.329 95.7397C91.3636 95.7648 91.4064 95.776 91.4488 95.771C91.4913 95.766 91.5303 95.7452 91.5581 95.7127C91.586 95.6803 91.6006 95.6385 91.599 95.5958C91.5975 95.5531 91.5799 95.5125 91.5498 95.4821C91.3339 95.3212 91.0826 95.2143 90.8169 95.1703C90.5512 95.1263 90.2789 95.1465 90.0226 95.2291C89.989 95.2406 89.9599 95.2623 89.9393 95.2912C89.9187 95.3201 89.9076 95.3547 89.9076 95.3901C89.9076 95.4256 89.9187 95.4602 89.9393 95.4891C89.9599 95.5179 89.989 95.5396 90.0226 95.5511L90.0134 95.5557Z" fill="#263238"/>
<path d="M80.3672 98.4078C80.8824 101.025 81.393 105.823 79.5622 107.571C79.5622 107.571 80.2798 110.225 85.1466 110.225C90.4964 110.225 87.7042 107.571 87.7042 107.571C84.7832 106.872 84.8568 104.705 85.3674 102.672L80.3672 98.4078Z" fill="#B55B52"/>
<path d="M78.863 108.482C78.4766 107.64 78.058 106.679 78.9274 106.38C79.8888 106.048 85.1512 105.708 86.9636 106.329C87.2032 106.394 87.4274 106.506 87.6231 106.659C87.8188 106.812 87.982 107.003 88.1033 107.219C88.2245 107.436 88.3012 107.675 88.3291 107.922C88.3569 108.168 88.3353 108.418 88.2654 108.657L78.863 108.482Z" fill="#263238"/>
<path d="M97.24 112.971C98.367 115 99.5768 117.088 100.8 119.094C102.024 121.1 103.307 123.096 104.678 124.918C105.019 125.378 105.373 125.815 105.722 126.252C105.897 126.477 106.081 126.661 106.261 126.868L106.527 127.172L106.596 127.25L106.629 127.287L106.661 127.328C106.875 127.535 107.133 127.692 107.415 127.788C107.85 127.939 108.298 128.049 108.754 128.115C110.99 128.34 113.244 128.314 115.474 128.036L116.174 130.474C115.553 130.75 114.973 130.934 114.357 131.164C113.74 131.394 113.133 131.546 112.517 131.703C111.21 132.03 109.871 132.209 108.524 132.236C107.768 132.248 107.013 132.173 106.274 132.011C105.368 131.831 104.513 131.45 103.772 130.898L103.464 130.645L103.39 130.58L103.344 130.534L103.257 130.447L102.898 130.093C102.663 129.858 102.406 129.633 102.194 129.384C101.734 128.901 101.302 128.418 100.902 127.921C99.2945 125.979 97.8119 123.937 96.4626 121.808C95.791 120.759 95.1439 119.7 94.5214 118.629C93.8958 117.548 93.2932 116.49 92.709 115.35L97.24 112.971Z" fill="#B55B52"/>
<path d="M73.1544 108.381C69.7964 109.149 65.9508 118.298 65.9508 118.298L72.6898 122.898C74.3659 120.495 75.8531 117.965 77.138 115.331C79.1298 111.164 76.586 107.594 73.1544 108.381Z" fill="#8FB78F"/>
<path opacity="0.2" d="M75.5556 114.213L72.3724 122.696L72.6852 122.917C72.6852 122.917 74.0652 120.98 75.5556 118.367V114.213Z" fill="black"/>
<path d="M93.2104 108.56C93.2104 108.56 97.0192 112.866 93.422 139.5H74.2722C74.1434 136.56 75.988 122.227 73.1544 108.376C75.2707 107.968 77.4111 107.698 79.5622 107.566C82.2739 107.408 84.9925 107.408 87.7042 107.566C89.5627 107.754 91.4037 108.086 93.2104 108.56Z" fill="#8FB78F"/>
<path opacity="0.2" d="M91.0806 116.265C91.5802 119.288 92.8865 122.12 94.8618 124.462C94.94 122.746 94.9722 121.205 94.9676 119.83L91.0806 116.265Z" fill="black"/>
<path d="M89.42 111.467C88.96 114.857 95.63 123.515 95.63 123.515L102.341 118.915C102.341 118.915 100.478 114.144 97.3458 111.016C93.7762 107.428 89.9444 107.778 89.42 111.467Z" fill="#8FB78F"/>
<path d="M114.72 128.059L117.452 126.937L120.263 129.062C120.263 129.062 117.581 131.436 115.143 130.511L114.72 128.059Z" fill="#B55B52"/>
<path d="M119.256 126.827L121.316 128.299L120.249 129.062L117.439 126.937L119.256 126.827Z" fill="#B55B52"/>
<path d="M81.5586 93.6606C80.6018 97.083 79.8658 99.038 80.9606 101.343C82.6028 104.816 87.2718 104.719 89.2406 101.655C91.007 98.8954 92.2766 93.7618 89.4614 91.2916C88.8433 90.7425 88.0951 90.3607 87.2879 90.1823C86.4807 90.0038 85.6412 90.0348 84.8493 90.2722C84.0575 90.5096 83.3394 90.9455 82.7634 91.5385C82.1875 92.1316 81.7727 92.8621 81.5586 93.6606Z" fill="#B55B52"/>
<path d="M88.845 93.6974C87.465 97.6258 85.8412 101.941 81.876 101.122C79.3184 100.593 79.116 96.4758 78.196 94.6036C77.3818 92.9614 77.4324 89.6586 79.116 89.6172C78.3616 88.5224 82.175 84.5158 84.7786 86.6318C85.4456 85.7118 90.2526 83.0024 93.813 87.3034C97.1664 91.3698 95.5242 94.76 88.845 93.6974Z" fill="#263238"/>
<path d="M85.74 96.209C85.6479 97.0865 85.8449 97.97 86.3012 98.7252C86.913 99.7096 87.81 99.3324 88.1412 98.325C88.4356 97.405 88.4678 95.818 87.6168 95.1786C86.7658 94.5392 85.8688 95.151 85.74 96.209Z" fill="#B55B52"/>
<path d="M115.125 187.165C115.585 187.165 116.045 187.1 116.178 186.893C116.216 186.839 116.237 186.774 116.237 186.707C116.237 186.64 116.216 186.575 116.178 186.521C116.117 186.424 116.022 186.353 115.911 186.323C115.313 186.162 114.071 186.875 114.012 186.907C113.996 186.915 113.983 186.928 113.976 186.944C113.968 186.96 113.966 186.977 113.97 186.995C113.973 187.011 113.981 187.026 113.992 187.039C114.004 187.051 114.018 187.059 114.035 187.064C114.394 187.129 114.759 187.163 115.125 187.165ZM115.695 186.47C115.749 186.463 115.803 186.463 115.856 186.47C115.891 186.477 115.924 186.491 115.952 186.511C115.981 186.532 116.005 186.559 116.022 186.59C116.082 186.696 116.063 186.746 116.022 186.774C115.856 187.008 114.95 187.013 114.283 186.916C114.72 186.677 115.2 186.526 115.695 186.47Z" fill="#8FB78F"/>
<path d="M114.044 187.064H114.081C114.513 186.87 115.369 186.098 115.3 185.684C115.3 185.587 115.217 185.472 114.987 185.444C114.904 185.437 114.821 185.447 114.742 185.472C114.663 185.497 114.59 185.538 114.527 185.592C114.067 185.964 113.975 186.93 113.97 186.972C113.969 186.986 113.971 187.001 113.976 187.015C113.982 187.028 113.991 187.041 114.002 187.05C114.015 187.057 114.029 187.062 114.044 187.064ZM114.918 185.615H114.968C115.12 185.615 115.129 185.693 115.134 185.711C115.175 185.955 114.591 186.562 114.15 186.824C114.186 186.419 114.347 186.035 114.61 185.725C114.695 185.652 114.805 185.612 114.918 185.615Z" fill="#8FB78F"/>
<path d="M109.881 186.981H113.46L114.274 178.687H110.695L109.881 186.981Z" fill="#B55B52"/>
<path d="M113.662 186.567H109.757C109.685 186.567 109.615 186.592 109.559 186.637C109.503 186.682 109.464 186.745 109.448 186.815L108.74 189.98C108.722 190.057 108.721 190.137 108.739 190.215C108.756 190.292 108.791 190.364 108.841 190.426C108.891 190.487 108.954 190.537 109.026 190.571C109.097 190.604 109.176 190.621 109.255 190.619C110.663 190.596 112.701 190.514 114.472 190.514C116.546 190.514 118.336 190.624 120.764 190.624C122.236 190.624 122.646 189.138 122.029 189.005C119.228 188.393 116.942 188.329 114.522 186.834C114.266 186.667 113.968 186.575 113.662 186.567Z" fill="#263238"/>
<path opacity="0.2" d="M114.269 178.692L113.855 182.965H110.272L110.69 178.692H114.269Z" fill="black"/>
<path d="M100.777 187.16C100.929 187.18 101.083 187.17 101.231 187.129C101.379 187.089 101.517 187.02 101.638 186.926C101.68 186.867 101.703 186.797 101.703 186.725C101.703 186.654 101.68 186.584 101.638 186.525C101.61 186.475 101.572 186.431 101.526 186.397C101.48 186.363 101.427 186.339 101.371 186.328C100.846 186.203 99.8574 186.88 99.816 186.907C99.8029 186.917 99.7926 186.931 99.7861 186.946C99.7797 186.961 99.7773 186.978 99.7792 186.995C99.7825 187.01 99.7903 187.025 99.8017 187.036C99.8132 187.048 99.8277 187.056 99.8436 187.059C100.15 187.126 100.463 187.16 100.777 187.16ZM101.237 186.479C101.271 186.475 101.305 186.475 101.339 186.479C101.372 186.484 101.403 186.497 101.43 186.516C101.457 186.535 101.479 186.56 101.495 186.59C101.573 186.732 101.527 186.788 101.495 186.811C101.343 187.008 100.612 187.013 100.074 186.926C100.42 186.691 100.815 186.539 101.228 186.479H101.237Z" fill="#8FB78F"/>
<path d="M99.8666 187.064H99.9034C100.276 186.861 100.994 186.079 100.915 185.684C100.904 185.62 100.87 185.563 100.82 185.522C100.771 185.481 100.708 185.458 100.644 185.458C100.58 185.45 100.515 185.456 100.453 185.475C100.391 185.494 100.334 185.526 100.285 185.569C99.8712 185.909 99.7838 186.949 99.7792 186.985C99.779 187.001 99.7826 187.016 99.7899 187.03C99.7971 187.043 99.8077 187.055 99.8206 187.064C99.8356 187.068 99.8516 187.068 99.8666 187.064ZM100.589 185.615H100.626C100.736 185.615 100.745 185.679 100.75 185.702C100.796 185.937 100.336 186.53 99.9678 186.811C99.9925 186.402 100.14 186.011 100.391 185.688C100.446 185.641 100.516 185.615 100.589 185.615Z" fill="#8FB78F"/>
<path d="M95.7634 186.981H99.3422L101.141 178.687H97.562L95.7634 186.981Z" fill="#B55B52"/>
<path d="M99.5952 186.567H95.5748C95.5035 186.567 95.4345 186.592 95.3792 186.637C95.324 186.683 95.2859 186.745 95.2712 186.815L94.5628 189.98C94.5462 190.058 94.5473 190.138 94.5661 190.215C94.5848 190.292 94.6207 190.364 94.6711 190.426C94.7215 190.487 94.7851 190.537 94.8571 190.57C94.9291 190.604 95.0078 190.62 95.0872 190.619C96.4902 190.596 97.1756 190.514 98.942 190.514C100.032 190.514 101.426 190.624 102.93 190.624C104.434 190.624 104.628 189.138 104.011 189.005C101.251 188.402 101.063 187.57 100.179 186.774C100.016 186.636 99.8087 186.562 99.5952 186.567Z" fill="#263238"/>
<g opacity="0.2">
<path d="M97.562 178.692H101.141L100.212 182.965H96.6328L97.562 178.692Z" fill="black"/>
</g>
<path d="M93.422 139.504C93.422 139.504 120.24 142.342 119.946 156.023C119.756 164.614 118.104 173.111 115.06 181.148H109.743C109.743 181.148 110.014 172.468 109.835 158.461C109.78 154.261 101.302 152.876 93.0172 152.389C89.5089 152.168 86.1321 150.972 83.2678 148.934C80.4035 146.896 78.1657 144.098 76.8068 140.857L76.241 139.504H93.422Z" fill="#263238"/>
<path d="M116.362 179.722C116.39 179.722 116.017 182.238 116.017 182.238H108.657L108.455 179.993L116.362 179.722Z" fill="#8FB78F"/>
<path d="M87.6812 139.504C87.6812 139.504 107.121 145.944 107.613 153.93C108.533 168.622 101.306 181.148 101.306 181.148H95.9382C95.9382 181.148 97.976 174.938 98.6982 161.626C99.6182 144.905 68.4164 161.598 74.263 139.504H87.6812Z" fill="#263238"/>
<path d="M102.93 179.722C102.958 179.722 102.254 182.238 102.254 182.238H94.894L95.0274 179.993L102.93 179.722Z" fill="#8FB78F"/>
<path d="M101.702 153.589H71.802C71.802 152.684 72.1616 151.816 72.8017 151.176C73.4418 150.536 74.31 150.176 75.2152 150.176H98.2888C99.194 150.176 100.062 150.536 100.702 151.176C101.342 151.816 101.702 152.684 101.702 153.589Z" fill="#8FB78F"/>
<path d="M73.1866 153.585L68.6786 191.378H69.6446L75.3624 153.585H73.1866Z" fill="#8FB78F"/>
<path opacity="0.4" d="M73.1866 153.585L68.6786 191.378H69.6446L75.3624 153.585H73.1866Z" fill="black"/>
<path d="M79.2172 153.585L79.1298 191.378H80.0912L81.393 153.585H79.2172Z" fill="#8FB78F"/>
<path opacity="0.4" d="M79.2172 153.585L79.1298 191.378H80.0912L81.393 153.585H79.2172Z" fill="black"/>
<path d="M100.317 153.585L104.825 191.378H103.859L98.1462 153.585H100.317Z" fill="#8FB78F"/>
<path opacity="0.4" d="M100.317 153.585L104.825 191.378H103.859L98.1462 153.585H100.317Z" fill="black"/>
<path d="M94.2868 153.585L94.3742 191.378H93.4128L92.111 153.585H94.2868Z" fill="#8FB78F"/>
<path opacity="0.4" d="M94.2868 153.585L94.3742 191.378H93.4128L92.111 153.585H94.2868Z" fill="black"/>
</svg>
