<svg width="28" height="30" viewBox="0 0 28 30" fill="none" xmlns="http://www.w3.org/2000/svg">
<path d="M1.19727 0.146483C1.05078 0.287108 1.05078 0.304686 1.05078 1.30664C1.05078 2.44922 1.08008 2.54297 1.44336 2.61328C1.5957 2.64258 1.66016 2.61914 1.77734 2.50195C1.92383 2.35547 1.92969 2.32617 1.92969 1.61133V0.878905H2.62109C3.27148 0.878905 3.32422 0.873045 3.44141 0.744139C3.61133 0.562498 3.61133 0.292967 3.43555 0.128905C3.30664 0.00585777 3.24219 -1.60933e-06 2.31641 -1.60933e-06C1.35547 -1.60933e-06 1.33789 -1.60933e-06 1.19727 0.146483Z" fill="#10324D"/>
<path d="M6.5293 0.146481C6.44727 0.222652 6.38281 0.357418 6.38281 0.439449C6.38281 0.521481 6.44727 0.656246 6.5293 0.732418C6.66406 0.873043 6.70508 0.878902 7.34961 0.878902H8.02344V1.55273C8.02344 2.27343 8.07617 2.47265 8.29883 2.57226C8.49805 2.66601 8.57422 2.65429 8.75 2.51367L8.90234 2.39648V1.31836V0.240231L8.75 0.123043C8.60352 0.0117149 8.51562 -3.8743e-06 7.63086 -3.8743e-06C6.6875 -3.8743e-06 6.66992 -3.8743e-06 6.5293 0.146481Z" fill="#10324D"/>
<path d="M4.20312 2.77148C3.77539 2.95312 3.44726 3.21679 3.22461 3.55664C2.91992 4.01953 2.86718 4.29492 2.86718 5.49023V6.5625H2.39843H1.92968V5.86523C1.92968 5.47851 1.91211 5.12109 1.89453 5.06836C1.83008 4.90429 1.55468 4.79883 1.35547 4.86914C1.08593 4.96289 1.05078 5.12109 1.05078 6.17578C1.05078 7.48242 1.01562 7.4414 2.08203 7.4414H2.86718V8.77734C2.86718 10.1016 2.86718 10.1191 3.00195 10.2422C3.19531 10.4238 3.4707 10.4121 3.62304 10.2187C3.74609 10.0664 3.74609 10.0078 3.74609 7.27148V4.47656L3.89258 4.17773C4.09765 3.77344 4.4082 3.55664 4.85937 3.52734C5.43945 3.48633 5.84961 3.70312 6.10742 4.18359L6.23633 4.42383L6.26562 10.0078C6.29492 15.4512 6.29492 15.5977 6.40625 15.6797C6.57031 15.7969 6.81054 15.7793 6.97461 15.6504L7.11523 15.5391L7.14453 12.791L7.17383 10.0371L7.33203 9.79687C7.41992 9.66797 7.61914 9.48047 7.77148 9.39258C8.48633 8.97656 9.45898 9.375 9.6582 10.1719C9.69922 10.3359 9.72265 11.4844 9.72265 13.5234V16.623L9.85742 16.7461C10.0391 16.916 10.2793 16.9102 10.4551 16.7285L10.6016 16.5879V13.9629C10.6016 11.543 10.6133 11.3203 10.7129 11.1035C10.9648 10.5527 11.5449 10.2363 12.0957 10.3359L12.3008 10.377V14.0039C12.3008 17.5605 12.3008 17.6367 12.418 17.7539C12.5762 17.9121 12.8926 17.9062 13.0391 17.748C13.1445 17.6309 13.1504 17.4199 13.1797 11.4902L13.209 5.36133H20.123H27.0371L27.0664 6.1289C27.0898 6.77929 27.1133 6.91992 27.207 7.02539C27.3594 7.19531 27.6523 7.18945 27.8164 7.01367C27.9336 6.88476 27.9453 6.82031 27.9453 6.07031C27.9453 5.06836 27.8457 4.8164 27.3477 4.56445C27.1367 4.45898 26.8848 4.45312 20.1113 4.45312C13.3848 4.45312 13.0801 4.45898 12.8867 4.56445C12.7754 4.62304 12.6055 4.76953 12.5059 4.88672L12.3301 5.10937L12.3125 7.2832L12.2949 9.46289H11.8437C11.4512 9.46875 11.3398 9.49218 10.9824 9.66797C10.7539 9.77929 10.5605 9.87304 10.543 9.88476C10.5254 9.89648 10.4609 9.77929 10.4023 9.62109C10.2324 9.21679 9.66406 8.66601 9.24218 8.50781C8.58008 8.26172 8.02343 8.28515 7.43164 8.58398L7.14453 8.72461V8.08593V7.4414H7.90625C8.95508 7.4414 8.90234 7.51172 8.90234 6.1582C8.90234 5.22656 8.89062 5.09765 8.79687 4.97461C8.65039 4.79883 8.35742 4.79883 8.18164 4.97461C8.06445 5.08594 8.05273 5.17383 8.03515 5.83008L8.01172 6.5625H7.58398H7.15625L7.13281 5.43164C7.09765 4.0957 7.02734 3.83203 6.55273 3.31054C6.125 2.84765 5.73828 2.67773 5.07031 2.65429C4.61328 2.63672 4.49023 2.65429 4.20312 2.77148Z" fill="#10324D"/>
<path d="M19.4902 6.65625C17.1816 7.07227 15.3594 8.75391 14.791 10.9922C14.3574 12.6738 14.6621 14.373 15.6582 15.8496C16.0156 16.377 16.5781 16.9102 16.9707 17.0977C17.2754 17.2383 17.3809 17.2559 17.9258 17.2559C18.4707 17.2559 18.582 17.2383 18.875 17.0977C19.5371 16.7871 20.0527 16.0957 20.1465 15.3809C20.2402 14.6953 20.0352 14.0508 19.543 13.4766C18.9805 12.8203 18.9805 12 19.5488 11.4785C20.1406 10.9277 20.9316 10.9629 21.5352 11.5664C21.9336 11.9707 22.3555 12.6211 22.5957 13.2129C22.8535 13.8516 23.0586 14.0098 23.3633 13.793C23.6621 13.582 23.627 13.2656 23.1992 12.4219C22.7187 11.4668 22.0977 10.7637 21.459 10.4473C21.0547 10.248 20.9785 10.2305 20.5098 10.2305C19.8418 10.2305 19.4492 10.3828 18.9805 10.8223C18.0312 11.6953 17.9902 13.0195 18.8691 14.0391C19.1855 14.4082 19.2852 14.6543 19.2852 15.0703C19.2852 16.0898 18.1719 16.7402 17.2754 16.248C16.7773 15.9785 16.1387 15.1172 15.8164 14.2969C15.459 13.3594 15.377 12.1816 15.6113 11.2793C16.2676 8.70703 18.8164 7.04883 21.3535 7.5293C22.3145 7.71094 23.1055 8.0918 23.8555 8.73633C24.2246 9.05859 24.4648 9.10547 24.6641 8.90625C24.875 8.69531 24.8164 8.45508 24.4941 8.13867C23.2402 6.93164 21.2422 6.33984 19.4902 6.65625Z" fill="#10324D"/>
<path d="M27.3184 8.37891C27.248 8.4082 27.166 8.48438 27.1309 8.54883C27.084 8.625 27.0664 10.5469 27.0664 14.7188C27.0664 19.3535 27.0488 20.7949 26.9961 20.8477C26.9434 20.9004 26.4805 20.918 25.2734 20.918H23.6152L23.498 21.0703C23.4277 21.1582 23.375 21.2812 23.375 21.3516C23.375 21.5332 23.5742 21.7266 23.7969 21.7676C23.9023 21.791 24.7051 21.7969 25.5723 21.7852L27.1543 21.7676L27.4297 21.6094C27.6172 21.498 27.7344 21.3691 27.8223 21.1934C27.9453 20.9414 27.9453 20.9121 27.9453 14.7832C27.9453 9.00586 27.9395 8.61914 27.8457 8.50781C27.7227 8.36133 27.4941 8.30273 27.3184 8.37891Z" fill="#10324D"/>
<path d="M19.6543 8.4668C19.4316 8.51953 18.9922 8.67773 18.6875 8.83008C18.2246 9.05273 18.0488 9.18164 17.627 9.60351C17.1992 10.0312 17.082 10.1895 16.8535 10.6641C16.5547 11.3027 16.4668 11.6074 16.4258 12.2344C16.3906 12.75 16.4961 13.4414 16.6953 13.9629C16.8477 14.3672 17.334 15.1113 17.5801 15.3164C17.7969 15.498 18.0547 15.5156 18.2188 15.3516C18.418 15.1523 18.3711 14.918 18.0605 14.543C17.7324 14.1387 17.4336 13.5117 17.3457 13.043C17.1523 11.9941 17.4746 10.9805 18.2422 10.2246C18.7344 9.74414 19.0977 9.5332 19.7188 9.375C21.0371 9.03516 22.2617 9.50976 23.2344 10.7402C24.8164 12.7441 25.1973 15.1113 24.3125 17.5195C24.166 17.9297 24.1426 18.041 24.1953 18.1699C24.2598 18.3223 24.4707 18.457 24.6348 18.457C24.916 18.457 25.2441 17.7715 25.4785 16.6758C25.8125 15.1465 25.6484 13.459 25.0215 12.0059C24.4473 10.6875 23.4395 9.44531 22.5078 8.92383C21.6699 8.45508 20.5508 8.27344 19.6543 8.4668Z" fill="#10324D"/>
<path d="M3.11914 11.6015C2.89648 11.6953 2.86719 11.8418 2.86719 12.9902V14.0918L2.11719 14.5605C0.921875 15.3105 0.400391 15.9433 0.142578 16.9629C0.0136719 17.4668 0.0136719 20.9707 0.142578 21.709C0.3125 22.6757 0.716797 23.5019 1.42578 24.3398C1.91797 24.914 2.17578 25.3125 2.43945 25.8808C2.80273 26.6718 2.87891 27.0761 2.91992 28.4941C2.95508 29.748 2.95508 29.7773 3.0957 29.8886C3.27148 30.0351 3.45898 30.0293 3.6582 29.8711L3.81641 29.748L3.78711 28.4238C3.76953 27.3222 3.74023 27.0234 3.64062 26.6484C3.34766 25.5703 2.9082 24.7382 2.16406 23.8535C1.66602 23.2617 1.32031 22.6582 1.10352 22.0019C0.974609 21.6093 0.96875 21.4922 0.945312 19.5527C0.933594 18.2343 0.945312 17.4082 0.986328 17.2207C1.08008 16.7988 1.32617 16.33 1.61328 16.0254C1.83594 15.7968 2.5625 15.2812 2.78516 15.1933C2.85547 15.1699 2.86719 15.6386 2.86719 17.9882C2.86719 19.8632 2.89062 20.8476 2.93164 20.9238C3.07812 21.205 3.54688 21.1816 3.68164 20.8828C3.75195 20.7246 3.77539 12.1054 3.71094 11.8476C3.6875 11.7773 3.59961 11.6777 3.50586 11.6308C3.31836 11.5312 3.30078 11.5312 3.11914 11.6015Z" fill="#10324D"/>
<path d="M20.3281 12.3047C20.1465 12.4863 20.1816 12.7383 20.4395 13.084C21.4355 14.4199 21.3301 16.1602 20.1758 17.3086C19.5547 17.9297 18.8281 18.2344 17.9375 18.2285C17.0879 18.2285 16.625 18.0586 15.875 17.4961C15.6406 17.3145 15.4004 17.168 15.3418 17.168C15.2832 17.168 15.166 17.2324 15.0781 17.3027C14.9609 17.4082 14.9199 17.4902 14.9258 17.6426C14.9258 17.8066 14.9844 17.8887 15.2422 18.123C15.5996 18.4453 16.4434 18.8848 16.959 19.0137C17.3691 19.1191 18.3535 19.1367 18.7578 19.0488C20.5039 18.6563 21.7344 17.3027 21.9746 15.5215C22.1211 14.4609 21.7285 13.1777 21.0254 12.416C20.7793 12.1523 20.5215 12.1113 20.3281 12.3047Z" fill="#10324D"/>
<path d="M23.082 15.3398C22.9883 15.416 22.9356 15.5625 22.8711 15.9258C22.6953 16.9336 22.209 17.8535 21.4414 18.6504C20.9961 19.1074 20.9375 19.2715 21.1484 19.5C21.3652 19.7344 21.6348 19.6758 22.0098 19.3242C22.8301 18.5449 23.457 17.4141 23.6973 16.2715C23.8145 15.7207 23.8086 15.4922 23.668 15.3516C23.5215 15.2051 23.252 15.1992 23.082 15.3398Z" fill="#10324D"/>
<path d="M12.5527 19.1016C12.3242 19.1953 12.2891 19.3535 12.3125 20.2383C12.3301 21.0293 12.3359 21.0879 12.4883 21.3105C12.7754 21.7441 12.875 21.7676 14.7266 21.7852L16.3555 21.8027L16.3145 22.0781C16.2441 22.5645 15.8867 23.5664 15.582 24.1406C14.5332 26.1152 14.2988 26.8945 14.252 28.6582L14.2227 29.748L14.3809 29.8711C14.5801 30.0293 14.7852 30.0352 14.9375 29.8828C15.0898 29.7305 15.1016 29.6543 15.1367 28.5645C15.1777 27.1699 15.3945 26.4023 16.1328 24.9902C16.373 24.5332 16.6543 23.9531 16.7539 23.707C16.9531 23.1914 17.2227 22.207 17.2227 21.9551V21.7969H19.5078C21.4063 21.7969 21.8281 21.7793 21.9629 21.709C22.2383 21.5684 22.291 21.252 22.0684 21.0469L21.9336 20.918H17.627C14.3574 20.918 13.3027 20.9004 13.25 20.8477C13.2031 20.8008 13.1797 20.5488 13.1797 20.0918C13.1797 19.459 13.168 19.3887 13.0508 19.2539C12.8926 19.084 12.7285 19.0312 12.5527 19.1016Z" fill="#10324D"/>
</svg>
