<svg width="304" height="315" viewBox="0 0 304 315" fill="none" xmlns="http://www.w3.org/2000/svg">
<ellipse cx="151.602" cy="157.417" rx="151.602" ry="157.417" fill="#CBE6C7"/>
<path d="M82.7215 248.276H60.7314V248.439H82.7215V248.276Z" fill="#EBEBEB"/>
<path d="M145.299 246.511H139.529V246.674H145.299V246.511Z" fill="#EBEBEB"/>
<path d="M21.0139 243.762H8.27271V243.925H21.0139V243.762Z" fill="#EBEBEB"/>
<path d="M249.499 242.668H232.183V242.831H249.499V242.668Z" fill="#EBEBEB"/>
<path d="M226.267 242.668H210.704V242.831H226.267V242.668Z" fill="#EBEBEB"/>
<path d="M272.16 250.484H209.961V250.647H272.16V250.484Z" fill="#EBEBEB"/>
<path d="M184.976 236.291H200.612V169.172H184.976V236.291Z" fill="#F0F0F0"/>
<path d="M128.773 238.232H197.618V236.291H128.773V238.232Z" fill="#F0F0F0"/>
<path d="M178.828 172.937H131.914V201.233H178.828V172.937Z" fill="#F0F0F0"/>
<path d="M178.828 204.23H131.914V232.526H178.828V204.23Z" fill="#F0F0F0"/>
<path d="M167.534 177.868H143.214C142.453 177.869 141.7 177.722 140.998 177.437C140.295 177.151 139.657 176.732 139.12 176.203C138.584 175.675 138.159 175.048 137.87 174.357C137.581 173.667 137.434 172.928 137.438 172.182H173.291C173.294 172.926 173.148 173.664 172.861 174.353C172.573 175.042 172.15 175.668 171.615 176.197C171.08 176.725 170.445 177.144 169.744 177.431C169.044 177.718 168.293 177.867 167.534 177.868Z" fill="#F5F5F5"/>
<path d="M167.534 209.161H143.214C141.684 209.161 140.216 208.564 139.134 207.503C138.052 206.441 137.444 205.001 137.444 203.5H173.297C173.297 205 172.69 206.439 171.61 207.5C170.529 208.562 169.063 209.159 167.534 209.161Z" fill="#F5F5F5"/>
<path d="M248.835 236.291H264.471V169.172H248.835V236.291Z" fill="#F0F0F0"/>
<path d="M192.625 238.232H261.47V236.291H192.625V238.232Z" fill="#F0F0F0"/>
<path d="M231.386 177.868H207.066C205.536 177.868 204.068 177.272 202.986 176.21C201.904 175.149 201.296 173.709 201.296 172.208H237.149C237.149 173.708 236.542 175.147 235.462 176.208C234.381 177.269 232.915 177.867 231.386 177.868Z" fill="#F5F5F5"/>
<path d="M163.757 139.619H264.478V136.323H163.757V139.619Z" fill="#E6E6E6"/>
<path d="M155.43 139.619H257.812V136.323H155.43V139.619Z" fill="#F0F0F0"/>
<path d="M256.623 103.37C256.712 103.363 256.794 103.323 256.853 103.257C256.911 103.191 256.941 103.105 256.935 103.018V52.0866C256.935 52.0054 256.902 51.9276 256.844 51.8702C256.785 51.8127 256.706 51.7805 256.623 51.7805C256.54 51.7805 256.461 51.8127 256.403 51.8702C256.344 51.9276 256.311 52.0054 256.311 52.0866V103.018C256.306 103.105 256.335 103.191 256.394 103.257C256.452 103.323 256.535 103.363 256.623 103.37Z" fill="#F0F0F0"/>
<path d="M36.2051 238.232H33.2107V229.875H39.3456L36.2051 238.232Z" fill="#F0F0F0"/>
<path d="M75.9955 194.531H81.4199C82.585 194.534 83.7385 194.305 84.8103 193.857C85.8821 193.409 86.8498 192.752 87.6544 191.925H69.7278C70.5358 192.756 71.5087 193.416 72.5867 193.864C73.6646 194.313 74.8248 194.539 75.9955 194.531Z" fill="#F0F0F0"/>
<path d="M46.264 194.531H51.6951C52.86 194.534 54.0135 194.304 55.0852 193.856C56.157 193.408 57.1247 192.751 57.9296 191.925H40.0029C40.8106 192.755 41.7826 193.414 42.8592 193.862C43.9359 194.31 45.0945 194.538 46.264 194.531Z" fill="#F0F0F0"/>
<path d="M91.7577 238.232H94.7521V229.875H88.6172L91.7577 238.232Z" fill="#F0F0F0"/>
<path d="M75.5242 182.917C75.5229 183.58 75.7223 184.23 76.0972 184.782C76.4721 185.335 77.0057 185.766 77.6304 186.02C78.2551 186.275 78.9428 186.343 79.6065 186.214C80.2702 186.085 80.8801 185.766 81.359 185.297C81.8379 184.829 82.1642 184.231 82.2967 183.58C82.4291 182.929 82.3618 182.254 82.1032 181.641C81.8446 181.027 81.4063 180.503 80.8439 180.134C80.2814 179.765 79.6201 179.568 78.9435 179.568C78.0383 179.57 77.1706 179.923 76.5299 180.551C75.8893 181.178 75.5277 182.029 75.5242 182.917Z" fill="#E0E0E0"/>
<path d="M80.4906 184.089C82.3754 184.089 83.9033 182.59 83.9033 180.741C83.9033 178.892 82.3754 177.393 80.4906 177.393C78.6058 177.393 77.0779 178.892 77.0779 180.741C77.0779 182.59 78.6058 184.089 80.4906 184.089Z" fill="#E0E0E0"/>
<path d="M58.4275 183.457C58.4275 184.119 58.6276 184.767 59.0026 185.317C59.3776 185.868 59.9106 186.297 60.5342 186.55C61.1578 186.804 61.844 186.87 62.506 186.741C63.168 186.612 63.7761 186.293 64.2533 185.825C64.7306 185.356 65.0556 184.76 65.1873 184.11C65.319 183.461 65.2514 182.788 64.9931 182.176C64.7348 181.564 64.2974 181.041 63.7362 180.673C63.175 180.305 62.5152 180.109 61.8402 180.109C60.9351 180.109 60.0671 180.462 59.4271 181.09C58.787 181.718 58.4275 182.569 58.4275 183.457Z" fill="#E0E0E0"/>
<path d="M85.0584 185.398C87.3722 185.398 89.2479 183.558 89.2479 181.288C89.2479 179.018 87.3722 177.178 85.0584 177.178C82.7446 177.178 80.8689 179.018 80.8689 181.288C80.8689 183.558 82.7446 185.398 85.0584 185.398Z" fill="#E0E0E0"/>
<path d="M72.5696 177.503C72.5683 178.317 72.8129 179.112 73.2724 179.789C73.732 180.466 74.3858 180.993 75.1512 181.305C75.9167 181.618 76.7592 181.7 77.5724 181.542C78.3855 181.384 79.1326 180.993 79.7192 180.419C80.3058 179.844 80.7054 179.112 80.8676 178.314C81.0298 177.517 80.9472 176.69 80.6304 175.939C80.3135 175.187 79.7765 174.545 79.0874 174.093C78.3983 173.641 77.588 173.4 76.7591 173.4C75.6497 173.401 74.5861 173.834 73.8009 174.603C73.0158 175.372 72.5731 176.415 72.5696 177.503Z" fill="#E0E0E0"/>
<path d="M65.9302 178.552C65.9289 179.365 66.1735 180.161 66.633 180.838C67.0926 181.514 67.7464 182.042 68.5118 182.354C69.2772 182.666 70.1198 182.749 70.933 182.591C71.7461 182.433 72.4932 182.042 73.0798 181.467C73.6664 180.893 74.066 180.16 74.2282 179.363C74.3904 178.566 74.3078 177.739 73.9909 176.987C73.674 176.236 73.1371 175.594 72.448 175.142C71.7589 174.69 70.9486 174.449 70.1197 174.449C69.0097 174.449 67.9451 174.881 67.1596 175.65C66.3741 176.419 65.9319 177.463 65.9302 178.552Z" fill="#E0E0E0"/>
<path d="M68.7388 181.868C68.7388 182.641 68.9724 183.396 69.4101 184.039C69.8479 184.682 70.47 185.183 71.198 185.479C71.9259 185.774 72.7269 185.852 73.4997 185.701C74.2724 185.55 74.9822 185.178 75.5394 184.631C76.0965 184.085 76.4759 183.388 76.6296 182.63C76.7833 181.872 76.7044 181.086 76.4029 180.372C76.1014 179.658 75.5908 179.048 74.9357 178.618C74.2806 178.189 73.5104 177.959 72.7225 177.959C71.6659 177.959 70.6527 178.371 69.9056 179.104C69.1585 179.837 68.7388 180.831 68.7388 181.868Z" fill="#E0E0E0"/>
<path d="M61.8069 181.614C61.8069 182.449 62.0592 183.265 62.532 183.959C63.0047 184.653 63.6767 185.194 64.4628 185.513C65.249 185.833 66.1141 185.916 66.9486 185.754C67.7832 185.591 68.5498 185.189 69.1515 184.598C69.7532 184.008 70.163 183.256 70.329 182.437C70.495 181.618 70.4098 180.77 70.0842 179.998C69.7585 179.227 69.2071 178.568 68.4996 178.104C67.792 177.64 66.9602 177.393 66.1093 177.393C64.9682 177.393 63.8739 177.838 63.067 178.629C62.2602 179.421 61.8069 180.494 61.8069 181.614Z" fill="#E0E0E0"/>
<path d="M91.7379 182.917C91.7379 182.917 91.2731 189.43 73.3 189.43C55.3269 189.43 54.8555 182.917 54.8555 182.917H91.7379Z" fill="#F0F0F0"/>
<path d="M177.786 67.2443C177.246 65.494 176.53 63.8007 175.648 62.1896L176.976 57.923L168.391 49.4942L164.042 50.7969C162.4 49.9318 160.674 49.2292 158.89 48.6995L156.752 44.7912H144.602L142.47 48.6995C140.686 49.2279 138.96 49.9306 137.318 50.7969L132.969 49.4942L124.378 57.923L125.706 62.1896C124.829 63.8022 124.115 65.4952 123.574 67.2443L119.557 69.3418V81.262L123.574 83.353C124.114 85.1025 124.827 86.7956 125.706 88.4077L124.378 92.6742L132.969 101.103L137.318 99.8003C138.961 100.662 140.687 101.362 142.47 101.891L144.602 105.8H156.752L158.89 101.891C160.673 101.361 162.398 100.661 164.042 99.8003L168.391 101.103L176.982 92.6742L175.654 88.4077C176.538 86.7971 177.254 85.1037 177.792 83.353L181.809 81.262V69.3418L177.786 67.2443ZM150.677 92.2313C147.262 92.2313 143.925 91.238 141.086 89.3771C138.247 87.5161 136.035 84.8711 134.728 81.7765C133.421 78.6818 133.08 75.2766 133.746 71.9913C134.412 68.7061 136.056 65.6884 138.47 63.3199C140.884 60.9514 143.96 59.3384 147.309 58.6849C150.658 58.0314 154.128 58.3668 157.283 59.6486C160.437 60.9305 163.133 63.1012 165.03 65.8863C166.927 68.6714 167.939 71.9458 167.939 75.2954C167.939 79.7871 166.121 84.0948 162.883 87.2709C159.646 90.447 155.255 92.2313 150.677 92.2313Z" fill="#CBE6C7"/>
<path opacity="0.2" d="M177.786 67.2443C177.246 65.494 176.53 63.8007 175.648 62.1896L176.976 57.923L168.391 49.4942L164.042 50.7969C162.4 49.9318 160.674 49.2292 158.89 48.6995L156.752 44.7912H144.602L142.47 48.6995C140.686 49.2279 138.96 49.9306 137.318 50.7969L132.969 49.4942L124.378 57.923L125.706 62.1896C124.829 63.8022 124.115 65.4952 123.574 67.2443L119.557 69.3418V81.262L123.574 83.353C124.114 85.1025 124.827 86.7956 125.706 88.4077L124.378 92.6742L132.969 101.103L137.318 99.8003C138.961 100.662 140.687 101.362 142.47 101.891L144.602 105.8H156.752L158.89 101.891C160.673 101.361 162.398 100.661 164.042 99.8003L168.391 101.103L176.982 92.6742L175.654 88.4077C176.538 86.7971 177.254 85.1037 177.792 83.353L181.809 81.262V69.3418L177.786 67.2443ZM150.677 92.2313C147.262 92.2313 143.925 91.238 141.086 89.3771C138.247 87.5161 136.035 84.8711 134.728 81.7765C133.421 78.6818 133.08 75.2766 133.746 71.9913C134.412 68.7061 136.056 65.6884 138.47 63.3199C140.884 60.9514 143.96 59.3384 147.309 58.6849C150.658 58.0314 154.128 58.3668 157.283 59.6486C160.437 60.9305 163.133 63.1012 165.03 65.8863C166.927 68.6714 167.939 71.9458 167.939 75.2954C167.939 79.7871 166.121 84.0948 162.883 87.2709C159.646 90.447 155.255 92.2313 150.677 92.2313Z" fill="white"/>
<path d="M150.677 69.687C149.545 69.687 148.438 70.0163 147.497 70.6333C146.556 71.2503 145.822 72.1272 145.389 73.1532C144.956 74.1792 144.843 75.3082 145.063 76.3974C145.284 77.4865 145.829 78.487 146.63 79.2723C147.43 80.0575 148.45 80.5923 149.56 80.809C150.67 81.0256 151.821 80.9144 152.867 80.4894C153.913 80.0645 154.806 79.3448 155.435 78.4214C156.064 77.4981 156.4 76.4125 156.4 75.3019C156.4 73.8128 155.797 72.3846 154.724 71.3316C153.65 70.2786 152.195 69.687 150.677 69.687Z" fill="#CBE6C7"/>
<path d="M163.331 142.974C163.155 142.974 162.986 142.905 162.862 142.783C162.737 142.661 162.667 142.495 162.667 142.323V141.02C162.667 140.847 162.737 140.681 162.862 140.559C162.986 140.437 163.155 140.368 163.331 140.368C163.508 140.368 163.676 140.437 163.801 140.559C163.925 140.681 163.995 140.847 163.995 141.02V142.323C163.995 142.495 163.925 142.661 163.801 142.783C163.676 142.905 163.508 142.974 163.331 142.974Z" fill="#CBE6C7"/>
<path d="M152.994 126.142C152.384 125.758 151.908 125.201 151.626 124.546C151.557 124.387 151.426 124.262 151.262 124.198C151.098 124.134 150.915 124.136 150.753 124.204C150.591 124.273 150.463 124.401 150.398 124.562C150.333 124.722 150.335 124.902 150.405 125.061C150.795 125.95 151.444 126.707 152.27 127.237C152.377 127.304 152.502 127.34 152.629 127.341C152.772 127.342 152.913 127.297 153.028 127.213C153.144 127.129 153.229 127.011 153.27 126.876C153.311 126.741 153.306 126.596 153.257 126.464C153.207 126.332 153.115 126.219 152.994 126.142Z" fill="#CBE6C7"/>
<path d="M150.677 118.007C150.853 118.007 151.022 117.938 151.146 117.816C151.271 117.694 151.341 117.528 151.341 117.355V114.86C151.341 114.688 151.271 114.522 151.146 114.4C151.022 114.278 150.853 114.209 150.677 114.209C150.501 114.209 150.332 114.278 150.207 114.4C150.083 114.522 150.013 114.688 150.013 114.86V117.355C150.013 117.528 150.083 117.694 150.207 117.816C150.332 117.938 150.501 118.007 150.677 118.007Z" fill="#CBE6C7"/>
<path d="M157.588 126.715H155.039C154.863 126.715 154.694 126.784 154.569 126.906C154.445 127.028 154.375 127.194 154.375 127.367C154.375 127.54 154.445 127.705 154.569 127.827C154.694 127.95 154.863 128.018 155.039 128.018H157.588C157.764 128.018 157.933 127.95 158.058 127.827C158.182 127.705 158.252 127.54 158.252 127.367C158.252 127.194 158.182 127.028 158.058 126.906C157.933 126.784 157.764 126.715 157.588 126.715Z" fill="#CBE6C7"/>
<path d="M151.341 122.351V119.856C151.341 119.684 151.271 119.518 151.146 119.396C151.022 119.274 150.853 119.205 150.677 119.205C150.501 119.205 150.332 119.274 150.207 119.396C150.083 119.518 150.013 119.684 150.013 119.856V122.351C150.013 122.524 150.083 122.69 150.207 122.812C150.332 122.934 150.501 123.003 150.677 123.003C150.853 123.003 151.022 122.934 151.146 122.812C151.271 122.69 151.341 122.524 151.341 122.351Z" fill="#CBE6C7"/>
<path d="M163.956 130.949C163.932 130.779 163.841 130.624 163.702 130.519C163.562 130.414 163.386 130.367 163.212 130.389C163.126 130.403 163.043 130.434 162.968 130.48C162.894 130.526 162.83 130.586 162.779 130.656C162.729 130.726 162.693 130.805 162.674 130.889C162.654 130.973 162.652 131.06 162.668 131.145C162.689 131.296 162.7 131.448 162.701 131.601V133.555C162.701 133.728 162.771 133.893 162.895 134.016C163.02 134.138 163.189 134.206 163.365 134.206C163.541 134.206 163.71 134.138 163.834 134.016C163.959 133.893 164.029 133.728 164.029 133.555V131.601C164.019 131.382 163.994 131.165 163.956 130.949Z" fill="#CBE6C7"/>
<path d="M163.331 135.372C163.155 135.372 162.986 135.441 162.862 135.563C162.737 135.685 162.667 135.851 162.667 136.024V138.525C162.667 138.698 162.737 138.863 162.862 138.986C162.986 139.108 163.155 139.176 163.331 139.176C163.508 139.176 163.676 139.108 163.801 138.986C163.925 138.863 163.995 138.698 163.995 138.525V136.024C163.995 135.851 163.925 135.685 163.801 135.563C163.676 135.441 163.508 135.372 163.331 135.372Z" fill="#CBE6C7"/>
<path d="M162.754 128.364C162.104 127.635 161.246 127.115 160.291 126.872C160.206 126.85 160.118 126.846 160.031 126.858C159.945 126.87 159.862 126.898 159.787 126.942C159.711 126.985 159.646 127.043 159.593 127.111C159.541 127.18 159.502 127.258 159.481 127.341C159.459 127.424 159.454 127.51 159.466 127.595C159.478 127.68 159.507 127.762 159.552 127.835C159.596 127.909 159.655 127.974 159.725 128.025C159.795 128.077 159.874 128.114 159.959 128.136C160.656 128.312 161.283 128.691 161.758 129.223C161.82 129.293 161.897 129.348 161.983 129.387C162.068 129.425 162.162 129.445 162.256 129.445C162.383 129.445 162.508 129.408 162.615 129.34C162.723 129.272 162.808 129.176 162.86 129.062C162.913 128.948 162.931 128.821 162.912 128.697C162.893 128.573 162.838 128.458 162.754 128.364Z" fill="#CBE6C7"/>
<path d="M150.677 112.984C150.501 112.984 150.332 112.916 150.207 112.793C150.083 112.671 150.013 112.506 150.013 112.333V111.03C150.013 110.857 150.083 110.692 150.207 110.57C150.332 110.447 150.501 110.379 150.677 110.379C150.853 110.379 151.022 110.447 151.146 110.57C151.271 110.692 151.341 110.857 151.341 111.03V112.333C151.341 112.506 151.271 112.671 151.146 112.793C151.022 112.916 150.853 112.984 150.677 112.984Z" fill="#CBE6C7"/>
<path d="M194.783 175.771H41.052V178.188H194.783V175.771Z" fill="#CBE6C7"/>
<path d="M194.783 178.188H228.14V175.771H194.783V178.188Z" fill="#CBE6C7"/>
<path opacity="0.2" d="M194.783 178.188H228.14V175.771H194.783V178.188Z" fill="black"/>
<path d="M216.999 180.773H52.1932L46.6824 178.188H222.51L216.999 180.773Z" fill="#CBE6C7"/>
<path opacity="0.6" d="M216.999 180.773H52.1932L46.6824 178.188H222.51L216.999 180.773Z" fill="white"/>
<path d="M57.1729 180.773V257.858H59.2842L61.94 180.773H57.1729Z" fill="#CBE6C7"/>
<path d="M82.0974 180.773V257.858H84.2088L86.8646 180.773H82.0974Z" fill="#CBE6C7"/>
<path d="M216.999 180.773V257.858H214.894L212.232 180.773H216.999Z" fill="#CBE6C7"/>
<path d="M192.081 180.773V257.858H189.969L187.313 180.773H192.081Z" fill="#CBE6C7"/>
<path d="M141.913 146.511L134.975 174.24L134.782 175.771H182.639L182.839 174.24L189.77 146.511H141.913Z" fill="#CBE6C7"/>
<path opacity="0.3" d="M141.913 146.511L134.975 174.24L134.782 175.771H182.639L182.839 174.24L189.77 146.511H141.913Z" fill="black"/>
<path d="M188.303 146.511H140.439L133.507 174.24H181.365L188.303 146.511Z" fill="#CBE6C7"/>
<path d="M180.349 172.97L186.656 147.781H141.454L135.154 172.97H180.349Z" fill="white"/>
<path d="M168.896 174.24L168.696 175.771H115.999L116.191 174.24H168.896Z" fill="#CBE6C7"/>
<path opacity="0.6" d="M168.896 174.24L168.696 175.771H115.999L116.191 174.24H168.896Z" fill="white"/>
<path d="M69.3429 170.729C69.3095 169.737 68.9136 168.79 68.2273 168.06C67.541 167.331 66.6102 166.868 65.6049 166.756V166.007C65.604 165.963 65.5944 165.921 65.5765 165.881C65.5586 165.841 65.5328 165.806 65.5006 165.776C65.4685 165.746 65.4306 165.723 65.3892 165.708C65.3478 165.693 65.3038 165.686 65.2596 165.687H58.089C58.0445 165.686 58.0001 165.693 57.9583 165.708C57.9166 165.723 57.8782 165.746 57.8456 165.775C57.8129 165.805 57.7865 165.841 57.7678 165.88C57.7492 165.92 57.7388 165.963 57.7371 166.007V175.777H65.6049V174.709C66.6119 174.598 67.5443 174.135 68.231 173.404C68.9177 172.672 69.3125 171.723 69.3429 170.729ZM65.6049 173.445V168.019C66.2684 168.115 66.8747 168.442 67.313 168.94C67.7513 169.438 67.9925 170.074 67.9925 170.732C67.9925 171.39 67.7513 172.027 67.313 172.525C66.8747 173.023 66.2684 173.349 65.6049 173.445Z" fill="#CBE6C7"/>
<path d="M203.541 175.771H210.207L208.235 161.447H203.541V175.771Z" fill="#263238"/>
<path d="M193.767 175.771H206.395L208.739 159.004H196.117L193.767 175.771Z" fill="#CBE6C7"/>
<path opacity="0.3" d="M193.767 175.771H206.395L208.739 159.004H196.117L193.767 175.771Z" fill="black"/>
<path d="M192.081 175.771H205.22L207.571 159.004H194.431L192.081 175.771Z" fill="#CBE6C7"/>
<path opacity="0.4" d="M204.058 174.449L206.037 160.327H195.593L193.615 174.449H204.058Z" fill="white"/>
<path d="M104.599 151.019L104.054 151.592L103.47 152.243C103.078 152.686 102.686 153.135 102.315 153.598C101.571 154.523 100.854 155.467 100.183 156.438C98.8491 158.315 97.7354 160.334 96.8636 162.457C96.4575 163.466 96.142 164.508 95.9208 165.57C95.8145 166.17 95.7482 166.43 95.715 166.684C95.6782 166.887 95.6782 167.094 95.715 167.297C95.8263 167.615 96.001 167.908 96.229 168.16C96.4569 168.412 96.7336 168.616 97.0429 168.762C97.4911 169.033 97.962 169.266 98.4504 169.459C98.7072 169.563 98.9727 169.661 99.2472 169.752C99.4995 169.843 99.8182 169.935 100.017 170.013V173.602C99.5526 173.667 99.214 173.719 98.8222 173.745C98.4305 173.771 98.0521 173.778 97.6603 173.745C96.855 173.729 96.0537 173.629 95.2701 173.446C94.3873 173.242 93.541 172.908 92.7604 172.455C91.8425 171.929 91.0537 171.21 90.4498 170.352C89.8281 169.437 89.4158 168.402 89.2414 167.316C89.197 167.062 89.1682 166.805 89.1551 166.547C89.142 166.3 89.142 166.052 89.1551 165.805V165.44C89.1476 165.343 89.1476 165.245 89.1551 165.147L89.2082 164.574C89.3781 163.085 89.6984 161.617 90.1643 160.19C91.0635 157.45 92.3294 154.839 93.9289 152.425C94.6974 151.241 95.5331 150.099 96.432 149.006C96.8769 148.459 97.335 147.924 97.813 147.397C98.0454 147.13 98.2911 146.869 98.5434 146.609C98.7957 146.348 99.0281 146.12 99.3733 145.794L104.599 151.019Z" fill="#B55B52"/>
<path d="M98.696 169.935L101.79 167.707L103.55 173.947C103.55 173.947 100.807 174.944 98.716 173.602L98.696 169.935Z" fill="#B55B52"/>
<path d="M106.086 166.209L107.294 171.433L103.55 173.947L101.79 167.707L106.086 166.209Z" fill="#B55B52"/>
<path d="M125.652 127.074C125.513 127.458 125.613 127.842 125.872 127.927C126.131 128.012 126.449 127.777 126.582 127.393C126.715 127.009 126.622 126.618 126.37 126.533C126.117 126.448 125.792 126.683 125.652 127.074Z" fill="#263238"/>
<path d="M125.58 127.829C125.631 129.171 125.87 130.499 126.29 131.777C125.956 131.871 125.604 131.893 125.261 131.841C124.917 131.789 124.588 131.665 124.298 131.477L125.58 127.829Z" fill="#A02724"/>
<path d="M125.015 124.455C125.065 124.472 125.118 124.472 125.168 124.455C125.459 124.36 125.769 124.334 126.073 124.379C126.376 124.424 126.665 124.54 126.914 124.716C126.964 124.751 127.026 124.767 127.087 124.76C127.148 124.753 127.204 124.723 127.245 124.678C127.285 124.632 127.306 124.572 127.304 124.512C127.301 124.451 127.276 124.394 127.233 124.351C126.921 124.123 126.558 123.972 126.175 123.909C125.791 123.847 125.398 123.876 125.028 123.993C124.98 124.009 124.938 124.04 124.908 124.081C124.878 124.121 124.862 124.17 124.862 124.221C124.862 124.271 124.878 124.32 124.908 124.361C124.938 124.402 124.98 124.432 125.028 124.449L125.015 124.455Z" fill="#263238"/>
<path d="M111.092 128.494C111.836 132.2 112.573 138.994 109.93 141.469C109.93 141.469 110.966 145.228 117.991 145.228C125.712 145.228 121.682 141.469 121.682 141.469C117.466 140.479 117.572 137.411 118.309 134.532L111.092 128.494Z" fill="#B55B52"/>
<path d="M108.921 142.759C108.363 141.567 107.759 140.206 109.014 139.782C110.401 139.313 117.997 138.831 120.613 139.711C120.959 139.803 121.282 139.962 121.565 140.178C121.847 140.395 122.083 140.665 122.258 140.971C122.433 141.278 122.544 141.616 122.584 141.966C122.624 142.315 122.593 142.669 122.492 143.007L108.921 142.759Z" fill="#263238"/>
<path d="M135.446 149.116C137.072 151.989 138.819 154.946 140.585 157.786C142.351 160.626 144.203 163.453 146.182 166.033C146.673 166.684 147.184 167.303 147.689 167.922C147.941 168.241 148.207 168.501 148.466 168.795L148.851 169.225L148.95 169.335L148.997 169.387L149.043 169.446C149.353 169.739 149.725 169.962 150.132 170.097C150.76 170.312 151.407 170.466 152.064 170.56C155.292 170.88 158.546 170.842 161.765 170.449L162.774 173.901C161.878 174.292 161.041 174.553 160.151 174.879C159.262 175.204 158.385 175.419 157.495 175.641C155.61 176.105 153.676 176.358 151.732 176.396C150.641 176.414 149.552 176.306 148.486 176.077C147.177 175.822 145.943 175.284 144.874 174.501L144.429 174.142L144.323 174.051L144.256 173.986L144.13 173.862L143.612 173.361C143.274 173.029 142.902 172.709 142.596 172.358C141.932 171.674 141.308 170.99 140.731 170.286C138.411 167.536 136.271 164.645 134.324 161.629C133.354 160.144 132.42 158.644 131.522 157.128C130.619 155.598 129.749 154.099 128.906 152.484L135.446 149.116Z" fill="#B55B52"/>
<path d="M100.681 142.616C95.8343 143.703 90.2837 156.659 90.2837 156.659L100.011 163.173C102.43 159.77 104.576 156.187 106.431 152.458C109.306 146.557 105.634 141.502 100.681 142.616Z" fill="#CBE6C7"/>
<path opacity="0.2" d="M104.147 150.875L99.5525 162.887L100.004 163.199C100.004 163.199 101.996 160.457 104.147 156.757V150.875Z" fill="black"/>
<path d="M129.629 142.87C129.629 142.87 135.127 148.967 129.935 186.682H102.295C102.109 182.519 104.771 162.222 100.681 142.609C103.736 142.032 106.825 141.649 109.93 141.463C113.844 141.238 117.768 141.238 121.682 141.463C124.364 141.728 127.022 142.198 129.629 142.87Z" fill="#CBE6C7"/>
<path opacity="0.2" d="M126.555 153.78C127.277 158.061 129.162 162.071 132.013 165.388C132.126 162.958 132.172 160.776 132.166 158.829L126.555 153.78Z" fill="black"/>
<path d="M124.159 146.986C123.495 151.787 133.122 164.046 133.122 164.046L142.809 157.532C142.809 157.532 140.12 150.777 135.598 146.348C130.446 141.267 124.915 141.762 124.159 146.986Z" fill="#CBE6C7"/>
<path d="M160.676 170.482L164.62 168.892L168.676 171.902C168.676 171.902 164.806 175.263 161.287 173.954L160.676 170.482Z" fill="#B55B52"/>
<path d="M167.222 168.736L170.197 170.82L168.656 171.902L164.6 168.892L167.222 168.736Z" fill="#B55B52"/>
<path d="M112.812 121.771C111.431 126.618 110.368 129.386 111.948 132.65C114.319 137.567 121.058 137.431 123.9 133.092C126.449 129.184 128.282 121.915 124.218 118.417C123.326 117.639 122.246 117.099 121.081 116.846C119.916 116.593 118.704 116.637 117.561 116.973C116.418 117.31 115.382 117.927 114.551 118.767C113.719 119.606 113.121 120.641 112.812 121.771Z" fill="#B55B52"/>
<path d="M123.329 121.824C121.337 127.386 118.993 133.496 113.27 132.337C109.578 131.588 109.286 125.758 107.958 123.107C106.783 120.781 106.856 116.104 109.286 116.046C108.197 114.496 113.701 108.822 117.459 111.818C118.422 110.516 125.36 106.679 130.499 112.769C135.339 118.528 132.969 123.328 123.329 121.824Z" fill="#263238"/>
<path d="M118.847 125.38C118.714 126.623 118.998 127.874 119.657 128.943C120.54 130.337 121.835 129.803 122.313 128.376C122.738 127.074 122.784 124.826 121.556 123.921C120.328 123.016 119.033 123.882 118.847 125.38Z" fill="#B55B52"/>
<path d="M161.26 254.178C161.924 254.178 162.588 254.087 162.781 253.793C162.835 253.716 162.865 253.624 162.865 253.53C162.865 253.435 162.835 253.343 162.781 253.266C162.692 253.129 162.555 253.029 162.396 252.986C161.532 252.758 159.74 253.767 159.653 253.813C159.631 253.824 159.613 253.842 159.602 253.865C159.591 253.887 159.588 253.913 159.594 253.937C159.598 253.96 159.609 253.982 159.626 253.999C159.642 254.016 159.663 254.029 159.687 254.034C160.206 254.127 160.732 254.175 161.26 254.178ZM162.083 253.194C162.161 253.183 162.239 253.183 162.316 253.194C162.366 253.203 162.413 253.223 162.455 253.253C162.496 253.282 162.53 253.32 162.555 253.364C162.641 253.513 162.615 253.585 162.555 253.624C162.316 253.956 161.008 253.963 160.045 253.826C160.676 253.488 161.369 253.273 162.083 253.194Z" fill="#CBE6C7"/>
<path d="M159.7 254.034H159.753C160.377 253.761 161.612 252.666 161.512 252.08C161.512 251.943 161.393 251.781 161.061 251.742C160.941 251.731 160.821 251.745 160.707 251.78C160.593 251.816 160.488 251.874 160.397 251.95C159.733 252.478 159.6 253.845 159.593 253.904C159.591 253.925 159.594 253.946 159.602 253.965C159.61 253.985 159.623 254.002 159.64 254.015C159.658 254.025 159.679 254.032 159.7 254.034ZM160.961 251.983H161.034C161.253 251.983 161.267 252.093 161.273 252.119C161.333 252.465 160.49 253.324 159.852 253.696C159.905 253.122 160.137 252.579 160.516 252.139C160.64 252.035 160.798 251.979 160.961 251.983Z" fill="#CBE6C7"/>
<path d="M153.691 253.917H158.857L160.032 242.173H154.866L153.691 253.917Z" fill="#B55B52"/>
<path d="M159.149 253.331H153.512C153.408 253.331 153.308 253.367 153.227 253.43C153.146 253.494 153.09 253.583 153.067 253.683L152.045 258.164C152.018 258.273 152.018 258.387 152.043 258.496C152.068 258.606 152.119 258.708 152.19 258.795C152.262 258.883 152.353 258.953 152.457 259C152.561 259.048 152.674 259.072 152.788 259.07C154.82 259.037 157.761 258.92 160.317 258.92C163.312 258.92 165.895 259.076 169.4 259.076C171.525 259.076 172.116 256.972 171.226 256.783C167.183 255.917 163.883 255.826 160.39 253.709C160.02 253.473 159.59 253.342 159.149 253.331Z" fill="#263238"/>
<path opacity="0.2" d="M160.025 242.179L159.428 248.231H154.255L154.86 242.179H160.025Z" fill="black"/>
<path d="M140.552 254.171C140.771 254.199 140.993 254.185 141.206 254.127C141.419 254.07 141.619 253.972 141.793 253.839C141.854 253.757 141.887 253.657 141.887 253.556C141.887 253.454 141.854 253.355 141.793 253.272C141.754 253.201 141.699 253.139 141.632 253.09C141.566 253.042 141.489 253.008 141.408 252.992C140.651 252.816 139.224 253.774 139.164 253.813C139.145 253.827 139.13 253.846 139.121 253.868C139.111 253.89 139.108 253.913 139.111 253.937C139.115 253.959 139.127 253.98 139.143 253.996C139.16 254.012 139.181 254.023 139.204 254.028C139.647 254.123 140.098 254.171 140.552 254.171ZM141.215 253.207C141.264 253.2 141.313 253.2 141.362 253.207C141.409 253.214 141.454 253.232 141.493 253.259C141.533 253.286 141.565 253.322 141.587 253.364C141.7 253.565 141.634 253.644 141.587 253.676C141.368 253.956 140.313 253.963 139.536 253.839C140.035 253.507 140.605 253.291 141.202 253.207H141.215Z" fill="#CBE6C7"/>
<path d="M139.237 254.034H139.29C139.828 253.748 140.863 252.64 140.751 252.08C140.734 251.991 140.685 251.91 140.613 251.851C140.542 251.793 140.452 251.761 140.359 251.761C140.266 251.75 140.172 251.758 140.083 251.785C139.994 251.812 139.911 251.857 139.841 251.917C139.243 252.399 139.117 253.872 139.111 253.924C139.11 253.946 139.116 253.967 139.126 253.987C139.136 254.006 139.152 254.022 139.17 254.034C139.192 254.041 139.215 254.041 139.237 254.034ZM140.279 251.983H140.332C140.492 251.983 140.505 252.074 140.512 252.106C140.578 252.439 139.914 253.279 139.383 253.676C139.418 253.098 139.631 252.544 139.994 252.087C140.073 252.02 140.174 251.983 140.279 251.983Z" fill="#CBE6C7"/>
<path d="M133.314 253.917H138.48L141.076 242.173H135.91L133.314 253.917Z" fill="#B55B52"/>
<path d="M138.845 253.331H133.042C132.939 253.332 132.84 253.367 132.76 253.431C132.68 253.495 132.625 253.584 132.604 253.683L131.582 258.164C131.558 258.274 131.559 258.388 131.586 258.497C131.613 258.607 131.665 258.709 131.738 258.796C131.811 258.883 131.902 258.952 132.006 259C132.11 259.047 132.224 259.071 132.338 259.07C134.363 259.037 135.353 258.92 137.902 258.92C139.476 258.92 141.488 259.076 143.659 259.076C145.83 259.076 146.109 256.972 145.219 256.783C141.235 255.93 140.963 254.751 139.688 253.624C139.453 253.429 139.153 253.324 138.845 253.331Z" fill="#263238"/>
<g opacity="0.2">
<path d="M135.911 242.179H141.076L139.735 248.231H134.569L135.911 242.179Z" fill="black"/>
</g>
<path d="M129.935 186.688C129.935 186.688 168.643 190.707 168.218 210.079C167.944 222.245 165.56 234.277 161.167 245.658H153.492C153.492 245.658 153.884 233.366 153.625 213.532C153.545 207.584 141.308 205.624 129.351 204.933C124.287 204.621 119.413 202.926 115.279 200.041C111.144 197.155 107.914 193.194 105.953 188.603L105.136 186.688H129.935Z" fill="#263238"/>
<path d="M163.046 243.638C163.086 243.638 162.548 247.201 162.548 247.201H151.925L151.633 244.023L163.046 243.638Z" fill="#CBE6C7"/>
<path d="M121.649 186.688C121.649 186.688 149.707 195.807 150.418 207.115C151.746 227.921 141.315 245.658 141.315 245.658H133.567C133.567 245.658 136.508 236.864 137.55 218.013C138.878 194.335 93.8425 217.974 102.281 186.688H121.649Z" fill="#263238"/>
<path d="M143.659 243.638C143.699 243.638 142.683 247.201 142.683 247.201H132.06L132.252 244.023L143.659 243.638Z" fill="#CBE6C7"/>
<path d="M141.886 206.633H98.7292C98.7292 205.352 99.2483 204.122 100.172 203.216C101.096 202.309 102.349 201.8 103.656 201.8H136.959C138.266 201.8 139.519 202.309 140.443 203.216C141.367 204.122 141.886 205.352 141.886 206.633Z" fill="#CBE6C7"/>
<path d="M100.728 206.627L94.2209 260.144H95.6152L103.868 206.627H100.728Z" fill="#CBE6C7"/>
<path opacity="0.4" d="M100.728 206.627L94.2209 260.144H95.6152L103.868 206.627H100.728Z" fill="black"/>
<path d="M109.432 206.627L109.306 260.144H110.694L112.573 206.627H109.432Z" fill="#CBE6C7"/>
<path opacity="0.4" d="M109.432 206.627L109.306 260.144H110.694L112.573 206.627H109.432Z" fill="black"/>
<path d="M139.888 206.627L146.394 260.144H145L136.754 206.627H139.888Z" fill="#CBE6C7"/>
<path opacity="0.4" d="M139.888 206.627L146.394 260.144H145L136.754 206.627H139.888Z" fill="black"/>
<path d="M131.183 206.627L131.309 260.144H129.921L128.042 206.627H131.183Z" fill="#CBE6C7"/>
<path opacity="0.4" d="M131.183 206.627L131.309 260.144H129.921L128.042 206.627H131.183Z" fill="black"/>
</svg>
