<svg width="20" height="20" viewBox="0 0 20 20" fill="none" xmlns="http://www.w3.org/2000/svg">
<path d="M10.075 8.125C10.2408 8.125 10.3997 8.19085 10.5169 8.30806C10.6342 8.42527 10.7 8.58424 10.7 8.75V9.72C10.6999 11.2132 10.4671 12.6972 10.01 14.1188L8.34626 19.2938C8.29253 19.4476 8.18085 19.5744 8.03501 19.6471C7.88916 19.7198 7.72069 19.7326 7.56551 19.6829C7.41032 19.6332 7.28069 19.5248 7.20424 19.3809C7.12779 19.237 7.11057 19.0689 7.15626 18.9125L8.81876 13.7363C9.23607 12.4383 9.44862 11.0833 9.44876 9.72V8.75C9.44876 8.58424 9.5146 8.42527 9.63181 8.30806C9.74903 8.19085 9.908 8.125 10.0738 8.125H10.075Z" fill="black"/>
<path d="M7.575 8.75C7.575 8.4217 7.63966 8.09661 7.7653 7.79329C7.89093 7.48998 8.07508 7.21438 8.30723 6.98223C8.53938 6.75009 8.81497 6.56594 9.11829 6.4403C9.4216 6.31466 9.74669 6.25 10.075 6.25C10.4033 6.25 10.7284 6.31466 11.0317 6.4403C11.335 6.56594 11.6106 6.75009 11.8428 6.98223C12.0749 7.21438 12.2591 7.48998 12.3847 7.79329C12.5103 8.09661 12.575 8.4217 12.575 8.75C12.575 8.91576 12.5091 9.07473 12.3919 9.19194C12.2747 9.30915 12.1158 9.375 11.95 9.375C11.7842 9.375 11.6253 9.30915 11.5081 9.19194C11.3908 9.07473 11.325 8.91576 11.325 8.75C11.325 8.41848 11.1933 8.10054 10.9589 7.86612C10.7245 7.6317 10.4065 7.5 10.075 7.5C9.74348 7.5 9.42553 7.6317 9.19111 7.86612C8.95669 8.10054 8.825 8.41848 8.825 8.75V9.165C8.825 9.67583 8.7975 10.1846 8.7425 10.6913C8.72087 10.8526 8.6371 10.9992 8.50902 11.0998C8.38095 11.2004 8.21868 11.247 8.05676 11.2297C7.89484 11.2124 7.74605 11.1327 7.64206 11.0073C7.53808 10.882 7.4871 10.7211 7.5 10.5587C7.55 10.0962 7.575 9.63167 7.575 9.165V8.75ZM11.9612 10C12.0433 10.0021 12.1242 10.0204 12.1992 10.0537C12.2742 10.0871 12.342 10.1349 12.3985 10.1945C12.455 10.254 12.4993 10.3241 12.5287 10.4008C12.5581 10.4775 12.5722 10.5592 12.57 10.6412C12.533 12.0611 12.2857 13.4676 11.8362 14.815L10.2537 19.565C10.2012 19.7223 10.0883 19.8523 9.93993 19.9264C9.79154 20.0004 9.6198 20.0125 9.4625 19.96C9.30519 19.9075 9.1752 19.7946 9.10112 19.6462C9.02705 19.4978 9.01495 19.3261 9.0675 19.1687L10.6512 14.4187C11.0611 13.1888 11.2865 11.9048 11.32 10.6088C11.3221 10.5267 11.3404 10.4458 11.3737 10.3708C11.4071 10.2958 11.4549 10.228 11.5145 10.1715C11.574 10.115 11.6441 10.0707 11.7208 10.0413C11.7975 10.0119 11.8792 9.99784 11.9612 10ZM7.76625 12.6437C7.84475 12.668 7.9177 12.7075 7.98093 12.7599C8.04416 12.8124 8.09642 12.8768 8.13474 12.9495C8.17305 13.0222 8.19666 13.1017 8.20421 13.1835C8.21176 13.2653 8.20311 13.3478 8.17875 13.4263L6.55 18.6737C6.52691 18.7536 6.48815 18.8279 6.43597 18.8926C6.3838 18.9572 6.31926 19.0108 6.24613 19.0502C6.173 19.0897 6.09275 19.1141 6.01007 19.1221C5.92739 19.1302 5.84393 19.1216 5.76458 19.097C5.68523 19.0724 5.61158 19.0323 5.54794 18.9789C5.48429 18.9255 5.43193 18.86 5.39391 18.7861C5.35589 18.7122 5.33298 18.6315 5.32651 18.5487C5.32005 18.4659 5.33015 18.3826 5.35625 18.3037L6.985 13.055C7.03422 12.897 7.14412 12.7649 7.29059 12.6878C7.43705 12.6107 7.60811 12.5949 7.76625 12.6437Z" fill="black"/>
<path d="M5.94874 7.29125C6.29396 6.31952 6.97124 5.50091 7.86113 4.97981C8.75102 4.45872 9.79634 4.26862 10.8127 4.44305C11.8291 4.61748 12.7512 5.14523 13.4164 5.9332C14.0817 6.72118 14.4473 7.71877 14.4487 8.75C14.4487 8.91576 14.3829 9.07473 14.2657 9.19194C14.1485 9.30915 13.9895 9.375 13.8237 9.375C13.658 9.375 13.499 9.30915 13.3818 9.19194C13.2646 9.07473 13.1987 8.91576 13.1987 8.75C13.1986 8.01287 12.9379 7.29952 12.4628 6.736C11.9876 6.17248 11.3285 5.79507 10.602 5.67047C9.87546 5.54586 9.12829 5.68209 8.49249 6.05508C7.8567 6.42806 7.37322 7.01379 7.12749 7.70875C7.07213 7.86506 6.95694 7.99298 6.80726 8.06436C6.65758 8.13574 6.48568 8.14474 6.32937 8.08937C6.17305 8.03401 6.04514 7.91882 5.97376 7.76914C5.90237 7.61946 5.89338 7.44756 5.94874 7.29125ZM6.32374 9.37875C6.48865 9.39487 6.64041 9.47582 6.74566 9.60381C6.8509 9.73179 6.90102 9.89633 6.88499 10.0612C6.80076 10.9217 6.63331 11.7719 6.38499 12.6L4.85749 17.69C4.80992 17.8488 4.70121 17.9822 4.55528 18.0608C4.40936 18.1395 4.23816 18.1569 4.07937 18.1094C3.92057 18.0618 3.78717 17.9531 3.70852 17.8072C3.62987 17.6612 3.61242 17.49 3.65999 17.3312L5.18749 12.2412C5.41283 11.4902 5.5648 10.7191 5.64124 9.93875C5.65736 9.77384 5.73832 9.62208 5.8663 9.51683C5.99428 9.41158 6.15882 9.36272 6.32374 9.37875ZM13.8237 10.1875C13.9895 10.1875 14.1485 10.2533 14.2657 10.3706C14.3829 10.4878 14.4487 10.6467 14.4487 10.8125C14.4487 12.4125 14.1825 14.0025 13.6587 15.515L12.2962 19.4462C12.2369 19.5959 12.1221 19.7169 11.9757 19.784C11.8294 19.8511 11.6628 19.8592 11.5107 19.8065C11.3585 19.7538 11.2326 19.6444 11.1591 19.5011C11.0856 19.3579 11.0703 19.1918 11.1162 19.0375L12.4775 15.1062C12.955 13.725 13.2 12.2737 13.2 10.8125C13.2 10.6467 13.2658 10.4878 13.383 10.3706C13.5003 10.2533 13.6592 10.1875 13.825 10.1875H13.8237Z" fill="black"/>
<path d="M4.87749 5.2775C5.57241 4.23691 6.56369 3.42887 7.723 2.95797C8.8823 2.48707 10.1563 2.37499 11.38 2.63625C11.4603 2.65332 11.5365 2.68605 11.6043 2.73258C11.672 2.7791 11.7298 2.8385 11.7746 2.90739C11.8193 2.97628 11.8501 3.05331 11.865 3.13408C11.88 3.21484 11.8789 3.29777 11.8619 3.37813C11.8448 3.45848 11.8121 3.53468 11.7655 3.60238C11.719 3.67009 11.6596 3.72796 11.5907 3.77271C11.5218 3.81746 11.4448 3.8482 11.364 3.86317C11.2833 3.87815 11.2003 3.87707 11.12 3.86C10.1408 3.65057 9.12129 3.73996 8.1935 4.11661C7.2657 4.49325 6.47236 5.1398 5.91624 5.9725C5.82276 6.1071 5.68015 6.19959 5.51913 6.23006C5.35811 6.26053 5.19157 6.22654 5.05536 6.13541C4.91916 6.04428 4.8242 5.90331 4.79093 5.74284C4.75766 5.58238 4.78875 5.41527 4.87749 5.2775ZM13.2775 4.08375C13.3858 3.95831 13.5394 3.881 13.7047 3.86881C13.8699 3.85662 14.0332 3.91055 14.1587 4.01875C14.8389 4.60505 15.3845 5.3313 15.7581 6.14785C16.1318 6.96441 16.3247 7.85202 16.3237 8.75V10.625C16.3237 10.7908 16.2579 10.9497 16.1407 11.0669C16.0235 11.1842 15.8645 11.25 15.6987 11.25C15.533 11.25 15.374 11.1842 15.2568 11.0669C15.1396 10.9497 15.0737 10.7908 15.0737 10.625V8.75C15.0746 8.03155 14.9203 7.32139 14.6212 6.66811C14.3222 6.01484 13.8856 5.43389 13.3412 4.965C13.216 4.85656 13.1389 4.70282 13.127 4.53757C13.115 4.37232 13.1691 4.20909 13.2775 4.08375ZM4.59999 7.3025C4.68127 7.31443 4.7594 7.34226 4.82992 7.38441C4.90043 7.42656 4.96194 7.4822 5.01093 7.54814C5.05993 7.61409 5.09544 7.68904 5.11544 7.76872C5.13544 7.8484 5.13954 7.93124 5.12749 8.0125C5.09083 8.25333 5.07249 8.49917 5.07249 8.75C5.07249 9.6375 4.94749 10.5213 4.69999 11.375L3.27499 16.2788C3.25364 16.3593 3.2164 16.4347 3.16546 16.5007C3.11452 16.5666 3.05091 16.6217 2.97837 16.6627C2.90583 16.7037 2.82583 16.7298 2.74307 16.7394C2.6603 16.749 2.57645 16.742 2.49644 16.7187C2.41643 16.6955 2.34188 16.6565 2.27717 16.604C2.21246 16.5515 2.1589 16.4866 2.11963 16.4131C2.08036 16.3396 2.05618 16.259 2.04852 16.1761C2.04085 16.0931 2.04985 16.0094 2.07499 15.93L3.49999 11.0263C3.71484 10.2866 3.82342 9.5202 3.82249 8.75C3.82249 8.4375 3.84499 8.13083 3.88999 7.83C3.90192 7.74872 3.92975 7.67059 3.9719 7.60008C4.01405 7.52956 4.06969 7.46805 4.13563 7.41906C4.20158 7.37007 4.27653 7.33455 4.35621 7.31455C4.43589 7.29455 4.51873 7.29046 4.59999 7.3025ZM15.7025 11.8775C15.8676 11.8915 16.0203 11.9705 16.1272 12.097C16.2341 12.2236 16.2863 12.3874 16.2725 12.5525C16.1675 13.8025 15.9 15.035 15.4725 16.22L14.5425 18.805C14.4845 18.9584 14.3686 19.0828 14.2197 19.1515C14.0708 19.2202 13.9009 19.2276 13.7466 19.1722C13.5923 19.1168 13.4659 19.0029 13.3948 18.8552C13.3236 18.7075 13.3134 18.5377 13.3662 18.3825L14.2975 15.795C14.686 14.7159 14.9315 13.5904 15.0275 12.4475C15.0415 12.2824 15.1205 12.1297 15.247 12.0228C15.3736 11.9159 15.5374 11.8637 15.7025 11.8775Z" fill="black"/>
<path d="M6.01251 1.7125C7.24774 0.999336 8.64894 0.623909 10.0753 0.623955C11.5016 0.624001 12.9028 0.999518 14.138 1.71276C15.3731 2.426 16.3988 3.45183 17.1119 4.68713C17.8249 5.92243 18.2002 7.32367 18.2 8.75C18.2 8.91576 18.1342 9.07473 18.0169 9.19194C17.8997 9.30915 17.7408 9.375 17.575 9.375C17.4092 9.375 17.2503 9.30915 17.1331 9.19194C17.0159 9.07473 16.95 8.91576 16.95 8.75C16.9504 7.54299 16.633 6.35714 16.0298 5.31168C15.4266 4.26623 14.5587 3.39801 13.5135 2.79433C12.4683 2.19065 11.2826 1.87277 10.0756 1.87267C8.86858 1.87257 7.68281 2.19024 6.63751 2.79375C6.49467 2.86847 6.32849 2.88511 6.17367 2.8402C6.01885 2.79528 5.88737 2.69229 5.8067 2.55272C5.72603 2.41316 5.7024 2.24782 5.74075 2.09125C5.7791 1.93468 5.87647 1.79898 6.01251 1.7125ZM4.90001 3.28375C4.96124 3.33841 5.0111 3.4046 5.04675 3.47853C5.08241 3.55246 5.10315 3.63269 5.10779 3.71464C5.11243 3.79659 5.10089 3.87865 5.07382 3.95614C5.04674 4.03363 5.00467 4.10502 4.95001 4.16625C3.82071 5.42567 3.19736 7.05842 3.20001 8.75C3.20001 8.91576 3.13416 9.07473 3.01695 9.19194C2.89974 9.30915 2.74077 9.375 2.57501 9.375C2.40925 9.375 2.25028 9.30915 2.13307 9.19194C2.01586 9.07473 1.95001 8.91576 1.95001 8.75C1.95001 6.67 2.73251 4.77 4.01876 3.33375C4.07342 3.27252 4.13961 3.22265 4.21354 3.187C4.28747 3.15135 4.3677 3.13061 4.44965 3.12597C4.5316 3.12132 4.61366 3.13287 4.69115 3.15994C4.76863 3.18701 4.83878 3.22908 4.90001 3.28375ZM2.39376 10.025C2.55314 10.0699 2.6882 10.1762 2.76929 10.3205C2.85038 10.4649 2.87087 10.6355 2.82626 10.795L1.85251 14.2537C1.83307 14.3357 1.79727 14.4129 1.74726 14.4806C1.69725 14.5484 1.63406 14.6053 1.56149 14.6481C1.48892 14.6908 1.40846 14.7184 1.32494 14.7293C1.24143 14.7401 1.15658 14.734 1.07549 14.7112C0.994411 14.6885 0.918762 14.6496 0.853092 14.5968C0.787422 14.5441 0.733085 14.4787 0.693345 14.4044C0.653605 14.3302 0.629281 14.2486 0.621833 14.1648C0.614386 14.0809 0.623969 13.9963 0.650008 13.9162L1.62251 10.4575C1.64472 10.3784 1.6823 10.3045 1.73309 10.24C1.78387 10.1755 1.84688 10.1216 1.91851 10.0814C1.99013 10.0413 2.06897 10.0156 2.15052 10.0059C2.23206 9.99624 2.31472 10.0027 2.39376 10.025ZM17.5813 10.6262C17.6633 10.6279 17.7443 10.6457 17.8195 10.6786C17.8947 10.7115 17.9627 10.7589 18.0196 10.8181C18.0765 10.8773 18.1211 10.9471 18.151 11.0236C18.1809 11.1001 18.1954 11.1817 18.1938 11.2637C18.1563 13.1375 17.9925 15.045 17.285 16.93L17.1975 17.1637C17.1363 17.3147 17.0186 17.4358 16.8694 17.5012C16.7202 17.5666 16.5514 17.5713 16.3989 17.5141C16.2464 17.4569 16.1222 17.3424 16.0528 17.195C15.9835 17.0476 15.9744 16.879 16.0275 16.725L16.115 16.4912C16.7475 14.8037 16.9075 13.0662 16.9438 11.2387C16.9454 11.1567 16.9632 11.0757 16.9961 11.0005C17.029 10.9253 17.0764 10.8573 17.1356 10.8004C17.1948 10.7436 17.2646 10.6989 17.3411 10.669C17.4176 10.6391 17.4992 10.6246 17.5813 10.6262Z" fill="black"/>
</svg>
