<svg width="25" height="25" viewBox="0 0 25 25" fill="none" xmlns="http://www.w3.org/2000/svg">
<path d="M17.1875 1.78571C17.1875 1.31211 17.3521 0.85791 17.6451 0.523023C17.9382 0.188137 18.3356 0 18.75 0H21.875C22.2894 0 22.6868 0.188137 22.9799 0.523023C23.2729 0.85791 23.4375 1.31211 23.4375 1.78571V23.2143H24.2188C24.426 23.2143 24.6247 23.3084 24.7712 23.4758C24.9177 23.6432 25 23.8703 25 24.1071C25 24.3439 24.9177 24.571 24.7712 24.7385C24.6247 24.9059 24.426 25 24.2188 25H0.78125C0.57405 25 0.375336 24.9059 0.228823 24.7385C0.08231 24.571 0 24.3439 0 24.1071C0 23.8703 0.08231 23.6432 0.228823 23.4758C0.375336 23.3084 0.57405 23.2143 0.78125 23.2143H1.5625V17.8571C1.5625 17.3835 1.72712 16.9293 2.02015 16.5945C2.31317 16.2596 2.7106 16.0714 3.125 16.0714H6.25C6.6644 16.0714 7.06183 16.2596 7.35485 16.5945C7.64788 16.9293 7.8125 17.3835 7.8125 17.8571V23.2143H9.375V10.7143C9.375 10.2407 9.53962 9.78648 9.83265 9.4516C10.1257 9.11671 10.5231 8.92857 10.9375 8.92857H14.0625C14.4769 8.92857 14.8743 9.11671 15.1674 9.4516C15.4604 9.78648 15.625 10.2407 15.625 10.7143V23.2143H17.1875V1.78571ZM18.75 23.2143H21.875V1.78571H18.75V23.2143ZM14.0625 23.2143V10.7143H10.9375V23.2143H14.0625ZM6.25 23.2143V17.8571H3.125V23.2143H6.25Z" fill="black"/>
</svg>
